<svg id="oca" xmlns="http://www.w3.org/2000/svg" width="115" height="42" viewBox="0 0 115 42">
  <defs>
    <style>
      .cls-1 {
        fill: #f09;
        fill-rule: evenodd;
      }
    </style>
  </defs>
  <path class="cls-1" d="M12.212,11.411c-0.069-.162-0.118-0.283-0.172-0.4C11.4,9.595,10.751,8.182,10.114,6.766a6.114,6.114,0,0,1-.367-0.955,1.265,1.265,0,0,1,.368-1.331,1.387,1.387,0,0,1,1.428-.351,1.407,1.407,0,0,1,.83.8c0.4,0.836.8,1.669,1.188,2.509,0.286,0.62.554,1.249,0.832,1.873a3.318,3.318,0,0,0,.189.385,0.779,0.779,0,0,0,.917.417c0.525-.109,1.043-0.254,1.568-0.364q2.556-.536,5.116-1.055a0.842,0.842,0,0,0,.848-1.054C23.013,5.964,23.006,4.286,23,2.608a1.874,1.874,0,0,1,.258-0.979,1.3,1.3,0,0,1,2.167-.094,1.549,1.549,0,0,1,.3.829c0.034,0.727.058,1.455,0.077,2.183,0.028,1.037.05,2.074,0.074,3.112q0,0.115.01,0.232c0.023,0.365.023,0.368,0.386,0.448l6.739,1.478,1.7,0.376c0.32,0.071.334,0.066,0.48-.232Q36.336,7.632,37.477,5.3A2.614,2.614,0,0,1,38.1,4.417a1.351,1.351,0,0,1,1.676-.059,1.312,1.312,0,0,1,.552,1.5,2.851,2.851,0,0,1-.172.428q-1.2,2.487-2.4,4.971c-0.056.116-.1,0.236-0.161,0.371,0.124,0.081.222,0.149,0.323,0.211,1.132,0.7,2.286,1.356,3.392,2.09a25.2,25.2,0,0,1,6.2,5.725,18.456,18.456,0,0,1,1.92,2.962,5.644,5.644,0,0,1,.5,1.463,3.492,3.492,0,0,1-.242,2.1,8.308,8.308,0,0,1-.783,1.45A30.731,30.731,0,0,1,33.726,39.421a29.566,29.566,0,0,1-5.977,1.373,25.676,25.676,0,0,1-4.692.164,26.2,26.2,0,0,1-9.716-2.491,33.261,33.261,0,0,1-8.335-5.488,24.326,24.326,0,0,1-3.489-4A8.093,8.093,0,0,1,.174,26.164a6.507,6.507,0,0,1,.361-4.082,13,13,0,0,1,1.8-2.915A24.308,24.308,0,0,1,8.6,13.52c1.017-.649,2.081-1.223,3.124-1.831C11.878,11.6,12.029,11.516,12.212,11.411ZM24.83,38.285a25.168,25.168,0,0,0,4.183-.334,23.813,23.813,0,0,0,8.115-2.939,33.015,33.015,0,0,0,9.63-8.841,4.691,4.691,0,0,0,.48-0.826,1.464,1.464,0,0,0,.031-1.283,5.868,5.868,0,0,0-.608-1.091c-0.682-.892-1.363-1.788-2.109-2.623A26.6,26.6,0,0,0,29.662,11.6a25.891,25.891,0,0,0-4.931-.413,24.209,24.209,0,0,0-6.925.942A28.834,28.834,0,0,0,9.6,16.049a21.617,21.617,0,0,0-5.82,5.636,7.633,7.633,0,0,0-.97,1.76A3.243,3.243,0,0,0,2.635,25.3a4.743,4.743,0,0,0,.5,1.287,13.175,13.175,0,0,0,1.428,1.979,27.29,27.29,0,0,0,7.8,6.56A25.891,25.891,0,0,0,24.83,38.285ZM24.638,37.16A12.406,12.406,0,1,1,36.981,24.9,12.441,12.441,0,0,1,24.638,37.16Zm0-2.7a9.707,9.707,0,1,0-9.633-9.733A9.625,9.625,0,0,0,24.642,34.462ZM21.029,20.337A3.312,3.312,0,0,1,24.56,21.9c0.161-.1.29-0.183,0.415-0.269,0.361-.25.718-0.507,1.081-0.754a3.8,3.8,0,0,1,5.762,2.883,3.167,3.167,0,0,1-.511,1.949,5.425,5.425,0,0,1-1.02,1.162q-2.158,1.942-4.318,3.881c-0.262.236-.52,0.474-0.784,0.707a0.645,0.645,0,0,1-1.056,0q-1.685-1.507-3.364-3.018c-0.654-.588-1.309-1.176-1.951-1.778a5.723,5.723,0,0,1-.684-0.757,3.1,3.1,0,0,1-.466-2.827,0.724,0.724,0,0,1,.047-0.121,0.262,0.262,0,0,1,.067-0.052c0.071,0.076.146,0.153,0.218,0.232a3.515,3.515,0,0,0,.946.758,1.959,1.959,0,0,0,2.714-1.406,2.33,2.33,0,0,0-.164-1.1C21.362,21.052,21.2,20.726,21.029,20.337Z"/>
  <path class="cls-1" d="M61.722,16.67V16.648l0.03-.008V16.7a0.133,0.133,0,0,1-.029-0.034M58.4,16.256v-0.1L58.472,16.2a0.14,0.14,0,0,1-.076.057m-2.513-1.59a0.707,0.707,0,0,0,.046.066,0.127,0.127,0,0,1-.046.011V14.666Zm7.286-9.509V5.263c-0.023-.013-0.054-0.029-0.09-0.045a0.136,0.136,0,0,1,.09-0.061m1.362,7.021,0-.033,0.017,0-0.012.031M58.775,13.95l-0.008.063c-0.014-.013-0.03-0.027-0.048-0.042a0.111,0.111,0,0,1,.056-0.021m-0.631-.428v0.041c-0.008-.012-0.017-0.024-0.027-0.036a0.094,0.094,0,0,1,.028,0M64.489,12a0.1,0.1,0,0,1-.029-0.069,0.813,0.813,0,0,1-.048.134,0.817,0.817,0,0,0-.058.174,2.361,2.361,0,0,0-.171.206,1.426,1.426,0,0,1-.316.336H63.652l0.075,0.2a0.454,0.454,0,0,1-.062.313c-0.02.049-.041,0.1-0.058,0.15a6.9,6.9,0,0,0-.768.476,3,3,0,0,1-1.174.189H59.421a2.369,2.369,0,0,1-.361-0.088l-0.124-.035a1.454,1.454,0,0,0-.617-0.423,0.985,0.985,0,0,0-.239-0.3,1.951,1.951,0,0,0-.21-0.185c-0.007-.014-0.014-0.026-0.021-0.039L57.824,13h0.331l-0.335-.271A2.443,2.443,0,0,1,57.238,12c-0.043-.073-0.088-0.149-0.137-0.225a1.555,1.555,0,0,0-.191-1.018,1.73,1.73,0,0,0,.263-1.035,3.64,3.64,0,0,0,.641-1.237l0.21-.158a6,6,0,0,1,1.359-.841l0.027-.011,0.021-.021a2.5,2.5,0,0,1,1.663-.385,1.23,1.23,0,0,1,.593.146l0.041,0.032h0.04c0.109,0.029.645,0.276,0.881,0.388v0l0.114,0.053a3.924,3.924,0,0,1,.823.5c0.082,0.071.157,0.143,0.237,0.218,0.1,0.1.209,0.2,0.33,0.3a2.328,2.328,0,0,0,.136.375c0.026,0.06.052,0.122,0.076,0.183l0.037,0.1h0a1.773,1.773,0,0,0,.361.562,2.911,2.911,0,0,0-.112.81,4.933,4.933,0,0,0,.034.962,0.221,0.221,0,0,1-.133.037l0.014,0.3A0.114,0.114,0,0,1,64.489,12m3.3-3.177,0.017-.086-0.066-.058a7.7,7.7,0,0,1-.76-0.8C66.8,7.672,66.619,7.458,66.4,7.247a0.168,0.168,0,0,0,.011-0.056,0.148,0.148,0,0,0-.086-0.141,0.3,0.3,0,0,0-.213-0.066c0-.025-0.011-0.048-0.016-0.069-0.022-.085-0.019-0.1.006-0.122l0.244-.256H65.992a0.872,0.872,0,0,1-.5-0.373,0.092,0.092,0,0,1-.017.067,0.1,0.1,0,0,1-.053.04l0.041-.3a1.468,1.468,0,0,1-.587-0.241l-0.045-.046H64.771a0.9,0.9,0,0,1-.29-0.1,0.133,0.133,0,0,1,.037.132,0.149,0.149,0,0,1-.021.045l-0.058-.026V5.513a3.321,3.321,0,0,1-.6-0.174,5.47,5.47,0,0,0-.53-0.164,1.421,1.421,0,0,0-.329-0.169c-0.065-.028-0.154-0.067-0.175-0.08a0.143,0.143,0,0,1,.05.157,0.122,0.122,0,0,1-.013.03,1.11,1.11,0,0,1-.12-0.058V4.884c-0.06,0-.4-0.061-0.6-0.1a4.36,4.36,0,0,0-.456-0.073h0c-0.036-.006-0.078-0.008-0.124-0.012L61.23,4.681c-0.019,0-.454-0.03-0.5-0.03a6.264,6.264,0,0,0-2.143.327,3.219,3.219,0,0,0-1.616.862,4.533,4.533,0,0,0-1.5,1.2l-0.012.016q-0.107.166-.214,0.333c-0.2.317-.415,0.646-0.635,0.968l-0.137.2,0.108,0.016-0.017.05c-0.008.022-.014,0.043-0.02,0.063l-0.011.017a0.5,0.5,0,0,1-.363.285V9.3a0.256,0.256,0,0,1,.043,0,0.055,0.055,0,0,1-.036.024v0.3A0.056,0.056,0,0,1,54.136,9.6a0.134,0.134,0,0,1-.017.077A0.1,0.1,0,0,1,54.2,9.644v0.3a0.144,0.144,0,0,1-.135-0.09A10.09,10.09,0,0,1,54,12.11a0.123,0.123,0,0,1,.1-0.053v0.252a0.228,0.228,0,0,1-.064.008h0v0.152h0l0,0.152v0a0.466,0.466,0,0,1,.058,0V12.8a0.207,0.207,0,0,1,.169.058,0.076,0.076,0,0,1,.007-0.061,0.094,0.094,0,0,1,.02-0.025l0.031-.013v0.253a0.541,0.541,0,0,1-.062,0v0.3a1.562,1.562,0,0,0,.377-0.034,2.364,2.364,0,0,0,.2.458c0.019,0.038.044,0.086,0.049,0.1a0.145,0.145,0,0,1,.021-0.126L55.029,13.8v0.152a0.142,0.142,0,0,1-.089-0.03c0.018,0.015.085,0.089,0.146,0.154a3.866,3.866,0,0,0,.636.609,1.965,1.965,0,0,0,.333.425l0.061,0.068H55.825l0.538,0.3a3.938,3.938,0,0,0,1.088.467v0.18a3.02,3.02,0,0,1,.479.064c0.115,0.021.225,0.041,0.324,0.053a0.849,0.849,0,0,0,.165.095,1.1,1.1,0,0,1,.1.053,0.137,0.137,0,0,1-.04-0.14,0.145,0.145,0,0,1,.02-0.043l0.075,0.037V16.46a4.288,4.288,0,0,1,.94.239,0.141,0.141,0,0,1-.053-0.148,0.137,0.137,0,0,1,.012-0.033c0.036,0.013.066,0.024,0.089,0.035l-0.015.192a9.775,9.775,0,0,0,1.293.128h0.148V16.723h0l0.013,0.151,0.169-.011,0.266-.018c0.046,0,.089-0.006.126-0.012v0h0v0a1.191,1.191,0,0,0,.195-0.039,0.5,0.5,0,0,0,.187-0.08c0.143-.018.286-0.051,0.4-0.076a1.744,1.744,0,0,1,.2-0.039V16.429c0.043-.022.151-0.06,0.209-0.087l0.013,0.122a0.137,0.137,0,0,1-.088-0.044,0.145,0.145,0,0,1-.063.145c0.013-.007.062-0.026,0.093-0.039a0.769,0.769,0,0,0,.171-0.083,9.319,9.319,0,0,0,2.544-.94l0.018-.01,0.139-.131c0.407-.382.868-0.816,1.473-1.287l0.051-.04,0.007-.064a4.082,4.082,0,0,1,.674-1.633l0.029-.046-0.007-.054a4.734,4.734,0,0,1,.121-1.674l0.007-.032-0.013-.061a4.16,4.16,0,0,1-.134-1.649m8.351,7.808a1.091,1.091,0,0,0,.11-0.027v0.127a0.146,0.146,0,0,1-.11-0.1m-0.523.075L75.7,16.7V16.82a0.153,0.153,0,0,1-.08-0.116m1-11.808v0.09l-0.062-.018A0.15,0.15,0,0,1,76.619,4.9m-3.706,8.7a0.14,0.14,0,0,1,.014.141,0.146,0.146,0,0,1-.031.042,0.694,0.694,0,0,1-.1-0.085V13.522a0.1,0.1,0,0,1,.033.005,1.772,1.772,0,0,1-.422-0.372,0.122,0.122,0,0,1-.012.113,0.139,0.139,0,0,1-.054.05,0.656,0.656,0,0,1-.057-0.07V13.028h0.01a0.357,0.357,0,0,1-.11-0.077l-0.14-.194a3.413,3.413,0,0,1-.463-0.988,2.827,2.827,0,0,1-.048-1l0.005-.03-0.007-.029a1.955,1.955,0,0,1,.16-0.989c0.071-.19.158-0.382,0.243-0.567a6.9,6.9,0,0,0,.279-0.673l0.16-.128a7.546,7.546,0,0,1,1.255-.877l0.015-.009a2.843,2.843,0,0,1,1.569-.4,1.535,1.535,0,0,1,.821.141l0.043,0.037h0.047a9.575,9.575,0,0,1,.953.428,0.149,0.149,0,0,1-.058-0.165l0.116,0.034L77.1,7.69a1.772,1.772,0,0,1,.737.471l0.018,0.026L77.886,8.2a1.272,1.272,0,0,1,.5.486L78.4,8.707l0.013,0.015a0.408,0.408,0,0,1,.164.432l-0.08.207h0.2a1.571,1.571,0,0,1,.184.261,2.1,2.1,0,0,0,.208.3,6.482,6.482,0,0,0-.111,1.069c-0.013.21-.028,0.462-0.045,0.593H78.718l0.211,0.25a0.185,0.185,0,0,1,.023.031,0.1,0.1,0,0,1,0-.076A0.112,0.112,0,0,1,79,11.737l0.021,0.215C79.01,11.974,79,12,78.986,12.029a0.145,0.145,0,0,1-.073-0.05,0.131,0.131,0,0,1-.027-0.106c0,0.011-.018.045-0.029,0.069a0.68,0.68,0,0,0-.082.309,0.959,0.959,0,0,0-.338.628,0.152,0.152,0,0,0,0,.015c-0.088.064-.166,0.127-0.242,0.188a2.95,2.95,0,0,1-.483.335l-0.058.031-0.018.063a0.845,0.845,0,0,1-.583.406l-0.019.007-0.016.012a1.334,1.334,0,0,1-.717.176H73.807a0.264,0.264,0,0,1-.192-0.079l-0.043-.082H73.485a2.458,2.458,0,0,1-.572-0.351m9.265-1.257,0.034-.051-0.01-.06a5.794,5.794,0,0,1-.064-0.655,3.877,3.877,0,0,0-.161-1.048,2,2,0,0,0-.33-1.8,2.714,2.714,0,0,0-.879-1.441c0.039,0,.1,0,0.2,0L81,6.985a1.291,1.291,0,0,1-.542-0.2l0.206-.247H80.342A0.762,0.762,0,0,1,79.9,6.189a0.084,0.084,0,0,1-.031.07l0.034-.29c-0.211-.05-0.363-0.1-0.5-0.136s-0.273-.082-0.441-0.117a0.439,0.439,0,0,0-.086-0.084,0.266,0.266,0,0,1-.031-0.026,0.131,0.131,0,0,1,.026.092l-0.066-.012L78.8,5.761l-0.01-.009V5.685l0.009,0H78.788V5.513a1.932,1.932,0,0,1-.651-0.256,0.124,0.124,0,0,1,.02.12,0.127,0.127,0,0,1-.033.054l-0.038-.022V5.157a4,4,0,0,1-.683-0.13c-0.223-.054-0.437-0.105-0.61-0.129a1.053,1.053,0,0,0-.35-0.116s-0.292-.068-0.333-0.068v0c-0.027,0-.054-0.006-0.08-0.008-0.433-.029-0.671-0.046-0.708-0.052a0.151,0.151,0,0,1,.123.158s0,0,0,.006l-0.135-.012V4.651a5.455,5.455,0,0,0-2.184.328,6.621,6.621,0,0,0-2.074.852l-0.022.016a6.427,6.427,0,0,0-1.111,1.2c-0.083.1-.163,0.2-0.239,0.295a4.748,4.748,0,0,1-.959.978l-0.356.262L68.806,8.6a0.21,0.21,0,0,1,.1.019,0.064,0.064,0,0,1-.007.025A0.126,0.126,0,0,1,69,8.6V8.757l-0.116.091a0.129,0.129,0,0,1-.029-0.1,0.371,0.371,0,0,1-.268.245V9.3a0.283,0.283,0,0,1,.033,0,0.326,0.326,0,0,1,0,.109c0,0.006,0,.013,0,0.019l-0.008.013a0.351,0.351,0,0,1-.319.2v0.3a0.065,0.065,0,0,1-.039-0.012,3.841,3.841,0,0,1,.247,1.084,5.2,5.2,0,0,0,.231,1.1,0.737,0.737,0,0,0-.144.1,0.321,0.321,0,0,1-.253.1h0l0,0.152h0v0.152h0a0.435,0.435,0,0,1,.237.042,0.1,0.1,0,0,1-.025-0.072A0.6,0.6,0,0,0,68.6,12.57V12.8a0.051,0.051,0,1,0,.09,0,0.14,0.14,0,0,1,.016-0.016,0.255,0.255,0,0,0,.052-0.026l0.019,0,0.006,0.01v0.189c-0.049,0-.105-0.005-0.17-0.005v0.3a0.613,0.613,0,0,1,.431.433,0.05,0.05,0,0,1,.017-0.027v0.3a2.015,2.015,0,0,1,.834.692,0.141,0.141,0,0,1,.008-0.134l0.13,0.078v0.152a0.136,0.136,0,0,1-.067-0.017,3.852,3.852,0,0,1,.623.622,0.121,0.121,0,0,1,.016-0.106,0.132,0.132,0,0,1,.061-0.05c0.013,0.016.023,0.03,0.033,0.044l-0.056.234a8.992,8.992,0,0,1,.959.538l0.055,0.036,0.056-.012a0.384,0.384,0,0,1,.118.033,0.134,0.134,0,0,1-.049-0.132,0.123,0.123,0,0,1,.015-0.041l0.035,0.01v0.231a3.03,3.03,0,0,1,.567.093c0.062,0.014.1,0.023,0.128,0.028s0.074,0.031.119,0.047a2.5,2.5,0,0,1,.261.105,0.139,0.139,0,0,1-.047-0.145,0.137,0.137,0,0,1,.016-0.036c0.034,0.014.065,0.027,0.088,0.038v0.2a5.581,5.581,0,0,1,.65.13,7.185,7.185,0,0,0,.777.154,1.814,1.814,0,0,0,.861.13H75.4V16.722h0l0.018,0.151,0.091-.008,0.177-.015a0.565,0.565,0,0,0,.121-0.02,2.807,2.807,0,0,0,.3-0.039,0.824,0.824,0,0,0,.25-0.071c0.086-.013.186-0.036,0.291-0.061a1.983,1.983,0,0,1,.3-0.058V16.463a0.39,0.39,0,0,1,.045,0,0.074,0.074,0,0,1-.02-0.008l0.1-.017a0.138,0.138,0,0,1-.051.108c0.008-.005.019-0.011,0.03-0.018a0.358,0.358,0,0,0,.137-0.112,7.4,7.4,0,0,0,2.523-.921l0.016-.011a4.627,4.627,0,0,0,1.313-1.447,7.031,7.031,0,0,0,.763-1.1c0.116-.193.236-0.393,0.37-0.593M92.546,9.576a2.289,2.289,0,0,1-1.126.659,5.267,5.267,0,0,1-1.453.241c0.159,0-1.646.176-1.883,0.176H87.552a0.415,0.415,0,0,0-.368-0.088c0.128-.43,0-2.163.115-2.163-0.11,0-.08-0.158.023-0.158a0.23,0.23,0,0,1-.2-0.188,0.756,0.756,0,0,0,.084-0.512,0.254,0.254,0,0,0,.177-0.165h0.557l1.7,0.03a7.482,7.482,0,0,1,1.513.127,2.758,2.758,0,0,1,1.167.439,1.224,1.224,0,0,1,.573.746,1.077,1.077,0,0,1-.348.856m2.818-1.292a1.494,1.494,0,0,1-.041-0.643C95.109,7.641,94.667,7,94.829,7a8.736,8.736,0,0,1-.819-0.614,1.27,1.27,0,0,0-.651-0.424,2.5,2.5,0,0,0-1.186-.379c0.417,0-.65-0.234-0.924-0.234,0.27,0-.07-0.044-0.066-0.044a8.256,8.256,0,0,0-.856-0.054c0.416,0,.041-0.044.2-0.044A1.643,1.643,0,0,1,90.2,5.179H86.117c-0.126,0-.5.047-0.587,0.047,0.077,0-.179.012-0.156,0.013-0.163,0-1.854-.089-1.7-0.089-0.132,0-.111-0.02-0.281-0.028,0.047,0-.088.013,0.1,0.013-0.255,0-.452.013-0.74,0.013,0.087,0-.087.037-0.187,0.109-0.042,0-.384.248-0.435,0.248a0.954,0.954,0,0,0-.082.384c-0.107,0-.178.381,0.093,0.381a0.9,0.9,0,0,0-.158.864,4.5,4.5,0,0,0,1.555.274c-0.1,0,.568-0.03.66-0.03h0.85c-0.384,0-.324.019-0.625,0.019a5.247,5.247,0,0,1,.67.067,2.305,2.305,0,0,1-.409.356c0.216,0.4.06,0.789,0.239,1.155a1.938,1.938,0,0,0-.136,1.3c-0.026.048,0.031,0.558,0.041,1.185a13.344,13.344,0,0,0,.068,2.829c-0.494,0-1.9-.033-2.136-0.033,0.023,0-.148.041,0.006,0.127a0.769,0.769,0,0,0-.567.308,1.268,1.268,0,0,1-.4.417c0.175,0,.144.318-0.115,0.318,0.259,0.3.37,0.706,0.655,0.985a4.806,4.806,0,0,0,1.539.276,0.506,0.506,0,0,1,.279-0.05,3.993,3.993,0,0,1,.653-0.206c0.07,0,2.238.029,2.6,0.029-0.363,0,.35.1,0.722,0.1-0.357,0,.281.029,0.053,0.031a4.774,4.774,0,0,0,1.293-.148c0.2-.1.44-0.232,0.213-0.4,0.42,0,.541-0.1.8-0.1-0.261,0-.261-0.45-0.143-0.45-0.118,0-.21-0.41.072-0.41A1.9,1.9,0,0,1,89.79,14.7c0.1,0-.265-0.26,0-0.26a4.744,4.744,0,0,0-.739-0.119c-0.054,0-1.524-.029-2.114-0.029,0.423,0,.084-1.358.23-1.358-0.109-.124.281-0.115,0.452-0.115-0.172,0-.153-0.085.08-0.171,0.035,0,3.228-.15,3.351-0.15a7.412,7.412,0,0,0,1.547-.285,6.433,6.433,0,0,1,1.472-.7,2.579,2.579,0,0,1,.892-0.909,0.945,0.945,0,0,0,.116-1.09c0.261,0,.261-1.229.291-1.229M106.1,16.132a0.8,0.8,0,0,0,.1-0.03v0.115a0.145,0.145,0,0,1-.1-0.085m-0.316.1v0s0-.007,0-0.011c0.04-.008.074-0.017,0.1-0.024v0.118a0.148,0.148,0,0,1-.095-0.081m-4.514.538V16.645l0.1,0.017a0.152,0.152,0,0,1-.1.11m-1.2-.4v-0.1c0.022,0.012.051,0.025,0.085,0.039a0.139,0.139,0,0,1-.085.062m-0.621-.1V16.167l0.068,0.01a0.152,0.152,0,0,1-.068.1m3.986-4.489V11.778l0.1,0.008,0,0.149a0.15,0.15,0,0,1-.1-0.149M97.7,5.984l0,0V5.982l0,0m0.8-.4c-0.028.014-.052,0.027-0.071,0.039V5.541a0.131,0.131,0,0,1,.071.048m1.019-.364c-0.038.013-.069,0.024-0.093,0.034V5.148a0.144,0.144,0,0,1,.093.077m4.646,0.244-0.015.116c-0.024-.015-0.057-0.034-0.093-0.054a0.14,0.14,0,0,1,.108-0.062m1.137-.3a0.611,0.611,0,0,0-.1.089V5.127a0.142,0.142,0,0,1,.1.041m3.217,7.76v-0.01a2.275,2.275,0,0,0-.164-0.854c-0.018-.046-0.037-0.1-0.061-0.161-0.015-.04-0.029-0.078-0.042-0.114a1.194,1.194,0,0,0-.566-0.748l-0.007-.012a1.725,1.725,0,0,0-.476-0.6l-0.023-.015c-0.173-.089-0.459-0.21-0.712-0.316-0.188-.079-0.422-0.178-0.463-0.2a0.146,0.146,0,0,1,.052.141l-0.132-.028-0.008-.156h-0.026a0.96,0.96,0,0,1-.12-0.014l-0.1-.014V9.77c-0.086,0-.865-0.1-1.194-0.151l0-.022h-0.162l-0.273-.024c-0.678-.059-1.055-0.091-1.1-0.091h0c-0.021,0-.04,0-0.055,0l-0.174-.009-0.531-.026c-0.077,0-.745-0.035-0.825-0.036a9.682,9.682,0,0,1-1.349-.157,6.549,6.549,0,0,1-.725-0.24l-0.268-.1A1.172,1.172,0,0,0,99.026,8.7a1.317,1.317,0,0,1,.031-0.322L99.075,8.3l-0.03-.031a0.982,0.982,0,0,1,.265-0.136l0.2-.075L99.379,7.9a1.214,1.214,0,0,1,.486-0.185L100,7.684l-0.019-.115a0.878,0.878,0,0,1,.139-0.1c0.038-.023.074-0.045,0.1-0.068,0.716-.1.88-0.106,0.916-0.106a5.173,5.173,0,0,1,1.642.194l0.02,0.006a12.1,12.1,0,0,1,1.679.475,0.18,0.18,0,0,0,.116.04A0.446,0.446,0,0,0,104.7,8l0.018,0a0.968,0.968,0,0,0,0,.1,0.623,0.623,0,0,0,.026.186,0.312,0.312,0,0,0,.043.083,0.651,0.651,0,0,0,.27.549l0.022,0.022a1.458,1.458,0,0,0,1.23.386h0.14V9.165h0l0.032,0.148,0.016,0a6.42,6.42,0,0,0,.654-0.162l0.051-.015,0.031-.043a2.579,2.579,0,0,0,.326-0.648l0.074-.2h-0.09c-0.011-.175-0.015-0.532-0.019-0.832,0-.325-0.008-0.662-0.018-0.924a2.072,2.072,0,0,0-.046-0.449,1.277,1.277,0,0,0-.083-0.768c-0.009-.028-0.019-0.056-0.028-0.084l-0.017-.052L107.286,5.1a2.252,2.252,0,0,0-1.378-.391,1,1,0,0,0-.382.135,1.091,1.091,0,0,0-.242.147,0.609,0.609,0,0,0-.233.229,1.03,1.03,0,0,0-.128.409,0.3,0.3,0,0,0-.172-0.028c-0.062-.011-0.2-0.038-0.47-0.108a0.785,0.785,0,0,0-.133-0.087,1.139,1.139,0,0,1-.14-0.087,0.122,0.122,0,0,1,.021.115,0.132,0.132,0,0,1-.036.059l0,0V5.213a3.034,3.034,0,0,1-.656-0.083,0.148,0.148,0,0,1,.086.163,0.059,0.059,0,0,1,0,.013,1.064,1.064,0,0,1-.134-0.032V5.111c-0.076,0-.571-0.113-0.629-0.132a0.151,0.151,0,0,1,.1.165l-0.15-.024V5.078l0.014-.109c-0.065-.009-0.614-0.123-0.889-0.184V4.738h-0.38a1.739,1.739,0,0,0-.85.12,4.862,4.862,0,0,0-.674.123,1.793,1.793,0,0,0-.537.181,3.751,3.751,0,0,0-.531.154,1.326,1.326,0,0,0-.493.249,1.6,1.6,0,0,0-.77.412q-0.063,0-.108.007a0.236,0.236,0,0,0-.183.085l-0.038.039a1.661,1.661,0,0,1-.51.441v0.3a0.1,0.1,0,0,1-.069-0.033,0.092,0.092,0,0,1-.027-0.06,0.853,0.853,0,0,1-.213.343A0.108,0.108,0,0,1,96.4,7.091V7.4a0.132,0.132,0,0,1-.13-0.1,0.943,0.943,0,0,1-.01.11,0.84,0.84,0,0,0,.009.377,1.389,1.389,0,0,0-.188.325,1.106,1.106,0,0,1-.129.231H95.748l0.1,0.263a3.389,3.389,0,0,0,.831,1.408,2.512,2.512,0,0,0,1.4.95,3.377,3.377,0,0,0,1.57.592,11.539,11.539,0,0,0,1.809.284h0.013c0.059,0,1.132.048,1.2,0.052l0.013-.129v0.13c0.06,0,.707.036,0.852,0.05v0.008a2.513,2.513,0,0,1,.834.118l0.019,0.063,0.092,0.016a0.832,0.832,0,0,1,.574.2,0.045,0.045,0,0,1-.006.017l-0.111.212,0.241,0.01a0.907,0.907,0,0,1,.384.1l0,0.005c-0.01.065-.015,0.14-0.019,0.218-0.011.2-.011,0.406-0.011,0.446v0.016a0.429,0.429,0,0,0-.094.208l-0.074.044a0.672,0.672,0,0,1-.344.133v0.273A0.113,0.113,0,0,1,105.009,14a0.1,0.1,0,0,1,.013-0.09,0.475,0.475,0,0,1-.283.084l-0.017.131c-0.08.006-.24,0.025-0.338,0.038l-0.211.027c-0.028,0-.057.008-0.085,0.014a2.226,2.226,0,0,0-.645.141h-1.551a1.48,1.48,0,0,1-.3-0.048,0.145,0.145,0,0,1,.078.155,0.119,0.119,0,0,1-.005.019,0.9,0.9,0,0,1-.114-0.026V14.267c-0.033,0-.088-0.006-0.152-0.012s-0.168-.016-0.277-0.023a0.331,0.331,0,0,0-.105-0.032l0-.076a2.13,2.13,0,0,1-1.155-.367l-0.009-.007a2.7,2.7,0,0,0-.564-0.258c-0.065-.023-0.127-0.046-0.179-0.068,0.006-.02.013-0.041,0.019-0.058a0.657,0.657,0,0,0,.048-0.267h0.312l-0.284-.263a1.067,1.067,0,0,1-.285-0.335,0.047,0.047,0,0,1,.016-0.025l0.169-.177-0.235-.073c-0.266-.083-0.436-0.153-0.561-0.2a0.866,0.866,0,0,0-.322-0.094,1.793,1.793,0,0,0-1.092.21,1.353,1.353,0,0,0-.644.6,1.047,1.047,0,0,1-.117.169l-0.24.256h0.26c0.051,0.249.078,1.058,0.094,1.561,0.01,0.3.019,0.584,0.031,0.793a1.93,1.93,0,0,0,.036.337,0.781,0.781,0,0,0,.573.9,1.4,1.4,0,0,0,.673.239,1.462,1.462,0,0,0,.921-0.174,0.559,0.559,0,0,0,.3-0.379c0-.006,0-0.011,0-0.016a0.658,0.658,0,0,0,.134-0.27,1.056,1.056,0,0,0,.381.129,1.043,1.043,0,0,0,.319.061c0.116,0.013.232,0.022,0.33,0.027a2.3,2.3,0,0,0,.576.231,5.874,5.874,0,0,0,.622.163,1.307,1.307,0,0,0,.363.072c0.147,0.019.339,0.038,0.449,0.04h2.567V16.718c0.018-.007.074-0.023,0.138-0.048a0.16,0.16,0,0,1,.007.024,0.149,0.149,0,0,1-.087.165l0.027-.009a1.064,1.064,0,0,0,.315-0.148,4.337,4.337,0,0,0,.611-0.208l0.107-.041h0.127v-0.07A0.625,0.625,0,0,0,106,16.308a0.781,0.781,0,0,0,.32-0.1,0.255,0.255,0,0,0,.234-0.128,4.444,4.444,0,0,0,1.117-.514l0.093-.055,0.02-.04a1.637,1.637,0,0,1,.125-0.2,1.552,1.552,0,0,0,.255-0.517,1.933,1.933,0,0,0,.241-0.922,0.9,0.9,0,0,0,.129-0.627c0-.078-0.008-0.167-0.009-0.28m2.1-6.541,0,0.036h0V6.387Zm2.866-3.36a0.113,0.113,0,0,1,0,.1,0.133,0.133,0,0,1-.038.047l0,0-0.011-.16a0.1,0.1,0,0,1,.057.018m0.07,0.213L113.491,3.2h0.085a0.143,0.143,0,0,1-.017.042m0.4,1.215a0.146,0.146,0,0,1-.08.1,0.184,0.184,0,0,0-.037-0.019l-0.031-.01V4.27a0.151,0.151,0,0,1,.147.115c0-.009,0-0.025-0.006-0.046a1.251,1.251,0,0,0-.081-0.351,0.213,0.213,0,0,0,0-.036,1.409,1.409,0,0,0-.045-0.284,0.78,0.78,0,0,0-.063-0.187,1.431,1.431,0,0,0-.07-0.125c-0.024-.039-0.066-0.107-0.093-0.158h0.169l-0.29-.265c-0.052-.048-0.1-0.1-0.146-0.141a1.218,1.218,0,0,0-.38-0.295,1.547,1.547,0,0,0-.856-0.468A1,1,0,0,0,111.86,2a1.465,1.465,0,0,0-1.021.506,1.23,1.23,0,0,0-.506.784h0a0.2,0.2,0,0,0-.06.141,0.2,0.2,0,0,0,.014.072,1.122,1.122,0,0,0-.167.764,0.937,0.937,0,0,0,.124.648c0,0.011,0,.022,0,0.035a0.943,0.943,0,0,0,.1.367c0,0.01,0,.02,0,0.032,0,0.149.041,0.447,0.059,0.568,0.014,0.1.029,0.2,0.041,0.268a0.927,0.927,0,0,0,.021.1c0,0.044,0,.11.011,0.214a5.527,5.527,0,0,1,.023.728,0.139,0.139,0,0,1,.133-0.09l-0.007.3a0.145,0.145,0,0,1-.13-0.09c0.039,0.127.122,1.2,0.182,1.991,0.029,0.383.057,0.744,0.079,1.011,0.013,0.144.023,0.25,0.032,0.323a0.787,0.787,0,0,0,.019.12,1.743,1.743,0,0,0,.294,1.021,1.055,1.055,0,0,0,.961.556,0.71,0.71,0,0,0,.527-0.169A3.492,3.492,0,0,0,113,11.815l0.024-.025a0.152,0.152,0,0,1-.107.044V11.676l0.147,0a0.152,0.152,0,0,1-.146.106h0.325l-0.159-.192c0.047-.209.186-0.8,0.212-0.87a0.151,0.151,0,0,1-.138.089V10.58c0-.022,0-0.049.005-0.079a0.152,0.152,0,0,1,.146.135,5.88,5.88,0,0,1,.117-0.9,0.139,0.139,0,0,1-.124.071V9.5a0.141,0.141,0,0,1,.134.09,3.332,3.332,0,0,1,.046-0.843,0.135,0.135,0,0,1-.121.069v-0.3a0.135,0.135,0,0,1,.126.08,3.6,3.6,0,0,1,.007-0.708h0.025l0-.15c0.006-.349.046-0.713,0.085-1.065,0.013-.117.026-0.234,0.037-0.35a1.58,1.58,0,0,0,.069-0.261c0.028-.132.063-0.316,0.1-0.544,0.014-.079.081-0.453,0.116-0.668h0.023V4.695a0.157,0.157,0,0,0-.025-0.085,0.907,0.907,0,0,0,.026-0.139,0.142,0.142,0,0,0,0-.016m-1.048,11.951,0.058-.028v0.081a0.131,0.131,0,0,1-.058-0.053m0.823-2.03,0-.016-0.007-.015a1.9,1.9,0,0,0-.445-0.591,1.614,1.614,0,0,0-.464-0.408l-0.025-.013a1.951,1.951,0,0,0-.672-0.158,1.845,1.845,0,0,0-1.393.531l-0.014.013-0.01.016a2.547,2.547,0,0,0-.376,1.186v0.019a2.28,2.28,0,0,0,.431,1.255,1.4,1.4,0,0,0,1.226.621,2.911,2.911,0,0,0,.3-0.039c0.12-.018.3-0.046,0.336-0.047V16.567a0.824,0.824,0,0,1,.122-0.071,0.177,0.177,0,0,1,.016.033,0.145,0.145,0,0,1-.041.156c0.035-.026.216-0.115,0.292-0.152,0.033-.016.063-0.031,0.089-0.046a0.162,0.162,0,0,0,.108-0.152h0c0.043-.041.092-0.1,0.152-0.165a1.931,1.931,0,0,0,.211-0.274,1.593,1.593,0,0,0,.314-0.814l0-.021,0-.021a5.956,5.956,0,0,0-.14-0.661m-52.986,6.47a0.657,0.657,0,0,1,.762.655c0,0.29-.1.667-0.1,1.159,0,0.416.051,0.781,0.051,1.1a0.8,0.8,0,0,1-.926.894,0.846,0.846,0,0,1-.965-0.856c-0.127-.819-0.3-1.322-1.231-1.322-1.155,0-1.8.945-1.8,2.72,0,1.751.672,2.733,1.713,2.733a1.188,1.188,0,0,0,1.383-1.02,4.07,4.07,0,0,1,.089-0.944,0.885,0.885,0,0,1,.837-0.453,1.12,1.12,0,0,1,1.155,1.322c0,1.675-1.332,2.745-3.667,2.745-2.373,0-3.883-1.675-3.883-4.37,0-2.758,1.561-4.42,3.959-4.42a1.947,1.947,0,0,1,1.853.844A0.745,0.745,0,0,1,60.748,20.846Zm7.372,6.939a0.642,0.642,0,0,1,.711.718,0.874,0.874,0,0,1-1.028.945c-0.38,0-.965-0.1-1.776-0.1-0.736,0-1.243.1-1.51,0.1a0.8,0.8,0,0,1-.876-0.882,0.753,0.753,0,0,1,.787-0.818c0.254,0,.495.088,0.736,0.088,0.343,0,.343-0.126.343-0.441V22.937c0-.264-0.013-0.378-0.33-0.378-0.229,0-.495.076-0.762,0.076a0.747,0.747,0,0,1-.774-0.806,0.8,0.8,0,0,1,.914-0.869c0.279,0,.837.088,1.675,0.088,0.609,0,1.13-.088,1.574-0.088a0.864,0.864,0,0,1,1.028.907,0.624,0.624,0,0,1-.571.73c-0.356.038-.457,0.063-0.457,0.365v1.045c0.584,0.038,1.041.05,1.345,0.05,0.355,0,.774-0.025,1.256-0.05V22.836c0-.151-0.165-0.2-0.444-0.239a0.6,0.6,0,0,1-.571-0.705A0.856,0.856,0,0,1,70.4,20.96c0.444,0,.977.088,1.587,0.088,0.837,0,1.383-.088,1.662-0.088a0.814,0.814,0,0,1,.927.869,0.757,0.757,0,0,1-.8.819c-0.279,0-.533-0.088-0.749-0.088-0.317,0-.33.126-0.33,0.441v4.5c0,0.252.051,0.34,0.343,0.34,0.241,0,.495-0.088.774-0.088a0.755,0.755,0,0,1,.762.818,0.821,0.821,0,0,1-.9.882c-0.317,0-.838-0.1-1.574-0.1s-1.307.1-1.7,0.1a0.843,0.843,0,0,1-1.015-.919,0.618,0.618,0,0,1,.571-0.731c0.279-.025.444-0.088,0.444-0.252V25.77c-0.482-.025-0.9-0.05-1.256-0.05-0.3,0-.762.013-1.345,0.05v1.624A0.306,0.306,0,0,0,68.12,27.785Zm12.612,1.776c-2.551,0-4.048-1.637-4.048-4.37,0-2.758,1.51-4.382,4.074-4.382s4.06,1.688,4.06,4.383S83.308,29.561,80.732,29.561Zm1.726-4.37c0-1.75-.622-2.67-1.713-2.67s-1.713.919-1.713,2.67,0.609,2.67,1.713,2.67C81.81,27.861,82.457,26.929,82.457,25.191Zm9.732-4.231a0.78,0.78,0,0,1,.9.856,0.738,0.738,0,0,1-.774.819c-0.254,0-.508-0.076-0.749-0.076-0.343,0-.343.113-0.343,0.428V27.5c0,0.252.051,0.328,0.343,0.328,0.229,0,.495-0.075.762-0.075a0.747,0.747,0,0,1,.774.806,0.822,0.822,0,0,1-.914.894c-0.254,0-.837-0.113-1.776-0.113-1.434,0-2.284.113-2.5,0.113a0.781,0.781,0,0,1-.9-0.856A0.764,0.764,0,0,1,87.8,27.76c0.254,0,.495.088,0.736,0.088,0.343,0,.343-0.126.343-0.441V22.949c0-.265-0.013-0.378-0.33-0.378-0.229,0-.495.076-0.762,0.076a0.747,0.747,0,0,1-.774-0.806,0.813,0.813,0,0,1,.914-0.882c0.254,0,.837.1,1.777,0.1C91.136,21.06,91.974,20.96,92.189,20.96Zm9.669-.113a0.656,0.656,0,0,1,.761.655c0,0.29-.1.667-0.1,1.159,0,0.416.051,0.781,0.051,1.1a0.8,0.8,0,0,1-.927.894,0.846,0.846,0,0,1-.964-0.856c-0.127-.819-0.3-1.322-1.231-1.322-1.155,0-1.8.945-1.8,2.72,0,1.751.673,2.733,1.713,2.733a1.188,1.188,0,0,0,1.383-1.02,4.106,4.106,0,0,1,.089-0.944,0.886,0.886,0,0,1,.838-0.453,1.12,1.12,0,0,1,1.154,1.322c0,1.675-1.332,2.745-3.667,2.745-2.373,0-3.883-1.675-3.883-4.37,0-2.758,1.561-4.42,3.959-4.42a1.947,1.947,0,0,1,1.853.844A0.745,0.745,0,0,1,101.858,20.846ZM106.6,23c0-.315,0-0.441-0.343-0.441-0.228,0-.482.076-0.748,0.076a0.747,0.747,0,0,1-.775-0.806,0.813,0.813,0,0,1,.9-0.894c0.115,0,1.053.126,3.034,0.126,2.207,0,3.553-.1,4-0.1a0.675,0.675,0,0,1,.812.743c0,0.264-.025.554-0.025,0.881,0,0.416.1,0.819,0.1,1.2a0.924,0.924,0,0,1-1.015.982,0.777,0.777,0,0,1-.863-0.705c0-.214.038-0.428,0.038-0.655,0-.919-0.432-0.945-1.574-0.945h-0.19c-0.977,0-1.168.151-1.168,0.667V24.3a1.769,1.769,0,0,0,.381.05c0.356,0,.584-0.138.584-0.365,0-.163-0.038-0.327-0.038-0.491a0.561,0.561,0,0,1,.66-0.529,0.677,0.677,0,0,1,.812.693c0,0.29-.127.768-0.127,1.448,0,0.617.114,1.045,0.114,1.259a0.665,0.665,0,0,1-.8.655,0.553,0.553,0,0,1-.66-0.516c0-.164.038-0.327,0.038-0.491a0.481,0.481,0,0,0-.584-0.378,2.82,2.82,0,0,0-.381.063v1.423c0,0.567.394,0.705,1.269,0.705,1.282,0,1.739-.013,1.739-1.007,0-.239-0.038-0.491-0.038-0.718a0.822,0.822,0,0,1,.914-0.73,0.983,0.983,0,0,1,1.078,1.045c0,0.353-.114.819-0.114,1.36,0,0.239.038,0.517,0.038,0.831a0.723,0.723,0,0,1-.863.819c-0.254,0-1.586-.1-3.985-0.1-2.042,0-3.045.113-3.172,0.113a0.791,0.791,0,0,1-.914-0.856,0.764,0.764,0,0,1,.788-0.831c0.253,0,.494.088,0.735,0.088,0.343,0,.343-0.126.343-0.441V23Zm-46.3,10.27,1.5,4.516c0.129,0.4.214,0.634,0.46,0.634,0.225,0,.417-0.065.578-0.065a0.626,0.626,0,0,1,.61.688,0.726,0.726,0,0,1-.8.8c-0.278,0-.749-0.108-1.4-0.108s-1.081.075-1.306,0.075A0.82,0.82,0,0,1,58.927,39a0.551,0.551,0,0,1,.61-0.6h0.118a0.252,0.252,0,0,0,.311-0.226,0.518,0.518,0,0,0-.022-0.151L59.8,37.431c-0.407-.022-0.77-0.043-1.092-0.043-0.193,0-.5.021-0.953,0.043l-0.2.591a0.4,0.4,0,0,0-.021.14,0.252,0.252,0,0,0,.31.236h0.118a0.543,0.543,0,0,1,.6.6,0.812,0.812,0,0,1-1.006.806c-0.224,0-.664-0.075-1.316-0.075s-1.113.108-1.4,0.108a0.726,0.726,0,0,1-.8-0.8,0.626,0.626,0,0,1,.61-0.688c0.15,0,.343.065,0.578,0.065s0.332-.247.46-0.634l1.488-4.505c0.257-.774.439-0.85,1.573-0.85C59.9,32.431,60.05,32.495,60.307,33.269Zm-1.562.72-0.621,2.14h1.241Zm6.988,0.57c-0.118-.462-0.192-0.623-0.471-0.623-0.118,0-.267.032-0.428,0.032a0.618,0.618,0,0,1-.621-0.678,0.7,0.7,0,0,1,.749-0.731c0.225,0,.653.1,1.3,0.1,0.46,0,.878-0.075,1.241-0.075a0.805,0.805,0,0,1,.942.774,0.551,0.551,0,0,1-.642.613c-0.225,0-.353.032-0.353,0.215,0,0.021.011,0.075,0.021,0.15l0.739,3.656h0.1L69,33.237a0.551,0.551,0,0,1,.706-0.57c0.15,0,.321.011,0.525,0.011s0.364-.011.514-0.011c0.481,0,.631.065,0.706,0.57l0.706,4.753H72.24l0.739-3.656a0.986,0.986,0,0,0,.032-0.15c0-.161-0.118-0.215-0.321-0.215a0.553,0.553,0,0,1-.674-0.591,0.8,0.8,0,0,1,.942-0.8c0.364,0,.77.075,1.231,0.075,0.631,0,1.06-.1,1.295-0.1a0.713,0.713,0,0,1,.76.731,0.618,0.618,0,0,1-.62.678c-0.172,0-.321-0.032-0.439-0.032-0.268,0-.343.161-0.461,0.624l-1.134,4.591c-0.161.645-.4,0.645-1.445,0.645H71.876c-0.642,0-.942-0.032-1.017-0.624l-0.567-4.215H70.175L69.6,39.172c-0.086.591-.385,0.624-1.028,0.624H68.3c-1.07,0-1.274-.011-1.434-0.645Zm17.573-1.29,1.5,4.516c0.128,0.4.214,0.634,0.46,0.634,0.224,0,.417-0.065.578-0.065a0.626,0.626,0,0,1,.61.688,0.726,0.726,0,0,1-.8.8c-0.278,0-.749-0.108-1.4-0.108s-1.081.075-1.305,0.075A0.82,0.82,0,0,1,81.925,39a0.551,0.551,0,0,1,.61-0.6h0.118a0.251,0.251,0,0,0,.31-0.226,0.529,0.529,0,0,0-.021-0.151L82.8,37.431c-0.407-.022-0.771-0.043-1.092-0.043-0.193,0-.5.021-0.952,0.043l-0.2.591a0.4,0.4,0,0,0-.021.14,0.252,0.252,0,0,0,.31.236h0.118a0.543,0.543,0,0,1,.6.6,0.812,0.812,0,0,1-1.006.806c-0.225,0-.664-0.075-1.316-0.075s-1.113.108-1.4,0.108a0.726,0.726,0,0,1-.8-0.8,0.626,0.626,0,0,1,.61-0.688c0.15,0,.343.065,0.578,0.065s0.332-.247.46-0.634L80.17,33.28c0.257-.774.439-0.85,1.573-0.85C82.9,32.431,83.049,32.495,83.306,33.269Zm-1.562.72-0.621,2.14h1.242Zm7.609,0.269c0-.215-0.01-0.312-0.235-0.312-0.15,0-.332.065-0.535,0.065a0.576,0.576,0,0,1-.589-0.667,0.661,0.661,0,0,1,.642-0.785,12.612,12.612,0,0,0,1.959.14c0.706,0,1.412-.118,2.161-0.118,1.477,0,2.291.688,2.291,1.892a1.436,1.436,0,0,1-1.509,1.516,1.369,1.369,0,0,1,1.348,1.043,2.642,2.642,0,0,1,.043.495c0,0.183-.011.344-0.011,0.484,0,0.247.043,0.4,0.257,0.4a4.153,4.153,0,0,1,.535-0.075,0.616,0.616,0,0,1,.6.7,0.79,0.79,0,0,1-.963.806c-0.214,0-.46-0.054-0.749-0.054-0.171,0-.343.032-0.525,0.032a1.068,1.068,0,0,1-1.1-1.29c0-.269.01-0.484,0.01-0.634,0-.817-0.3-1.032-1.252-1.032-0.439,0-.546.043-0.546,0.538v0.753c0,0.226.032,0.333,0.289,0.333,0.182,0,.353-0.054.5-0.054a0.529,0.529,0,0,1,.5.634,0.633,0.633,0,0,1-.642.763,12.215,12.215,0,0,0-1.541-.086,15.133,15.133,0,0,0-1.616.086,0.641,0.641,0,0,1-.7-0.753A0.587,0.587,0,0,1,88.6,38.4c0.193,0,.374.054,0.514,0.054,0.225,0,.235-0.108.235-0.322V34.259Zm1.83,1.043c0,0.226.011,0.269,0.428,0.269,0.931,0,1.4-.215,1.4-0.785,0-.591-0.417-0.817-1.22-0.817-0.492,0-.61.043-0.61,0.269V35.3Zm7.866-1.376c-0.193,0-.417.065-0.642,0.065a0.634,0.634,0,0,1-.653-0.688,0.677,0.677,0,0,1,.77-0.742c0.214,0,.739.065,1.573,0.065,0.642,0,1.231-.043,1.777-0.043,2.44,0,3.617,1.086,3.617,3.645,0,2.269-1.22,3.6-3.329,3.6-0.31,0-1.038-.054-2.225-0.054-0.8,0-1.263.054-1.434,0.054a0.672,0.672,0,0,1-.749-0.731,0.649,0.649,0,0,1,.664-0.71c0.214,0,.428.107,0.631,0.107,0.235,0,.289-0.129.289-0.408V34.3C99.337,34.022,99.337,33.925,99.048,33.925Zm2.248,4.1c0,0.43.042,0.473,0.674,0.473,1.038,0,1.5-.731,1.5-2.376,0-1.516-.428-2.183-1.509-2.183-0.631,0-.663.011-0.663,0.559v3.527Zm8,1.258a0.582,0.582,0,0,1-.674.624,0.643,0.643,0,0,1-.75-0.645c0-.193.064-0.451,0.064-0.785,0-.376-0.085-0.688-0.085-0.914a0.789,0.789,0,0,1,.877-0.839,0.88,0.88,0,0,1,.643.269,1.7,1.7,0,0,1,.256.882,1.193,1.193,0,0,0,1.22.613,0.872,0.872,0,0,0,1.06-.785c0-.8-0.749-0.645-2.119-1.021-1.306-.355-1.959-1.054-1.959-2.043a2.31,2.31,0,0,1,2.569-2.2,2.837,2.837,0,0,1,1.937.688,1.955,1.955,0,0,1-.043-0.226,0.574,0.574,0,0,1,.664-0.441,0.667,0.667,0,0,1,.717.742c0,0.226-.075.484-0.075,0.817,0,0.247.064,0.462,0.064,0.667a0.684,0.684,0,0,1-.76.613c-0.653,0-.695-0.441-0.824-0.882a1,1,0,0,0-1.07-.591c-0.7,0-1.081.291-1.081,0.7,0,0.667.888,0.57,2.066,0.85,1.391,0.323,2.065,1,2.065,2.151,0,1.484-1.145,2.441-2.9,2.441a2.268,2.268,0,0,1-1.862-.71V39.28Z"/>
</svg>