<svg id="svg" version="1.1" width="400" height="400" xmlns="http://www.w3.org/2000/svg" xmlns:xlink="http://www.w3.org/1999/xlink" style="display: block;"><g id="svgg"><path id="path0" d="M176.200 46.398 C 170.480 46.561,158.420 46.732,149.400 46.779 C 133.385 46.862,129.365 47.047,131.600 47.599 C 132.279 47.766,131.378 48.010,128.800 48.356 C 126.710 48.636,122.857 49.212,120.238 49.635 C 117.618 50.058,113.658 50.517,111.438 50.655 C 106.424 50.966,105.003 51.484,104.676 53.122 C 104.299 55.003,97.000 59.065,95.576 58.185 C 94.343 57.423,89.426 60.022,89.811 61.233 C 90.358 62.959,87.371 65.600,84.870 65.600 C 83.810 65.600,81.724 67.999,81.393 69.600 C 80.779 72.569,79.850 73.496,76.771 74.212 C 75.501 74.507,74.582 76.030,74.239 78.413 C 73.889 80.835,72.756 82.595,70.916 83.575 C 67.803 85.232,68.024 84.707,66.608 93.814 C 66.298 95.802,65.855 97.929,65.623 98.541 C 65.070 99.995,65.080 103.829,65.640 104.875 C 65.909 105.377,65.922 105.599,65.674 105.445 C 65.419 105.288,65.434 105.637,65.716 106.383 C 66.625 108.790,65.791 109.782,62.744 109.917 L 60.104 110.034 59.852 111.873 C 59.502 114.426,59.612 159.827,59.978 164.000 C 60.142 165.870,60.304 167.003,60.338 166.519 C 60.372 166.034,60.562 165.224,60.761 164.719 C 61.395 163.105,62.400 158.136,62.400 156.616 C 62.400 155.808,62.609 154.756,62.865 154.278 C 63.254 153.552,63.778 138.654,63.696 130.701 C 63.686 129.793,63.839 129.300,64.083 129.451 C 64.332 129.605,64.385 129.383,64.221 128.868 C 64.076 128.410,64.076 127.400,64.222 126.623 L 64.487 125.212 66.123 126.613 C 67.023 127.383,67.949 127.932,68.180 127.833 C 68.411 127.733,69.275 127.432,70.100 127.163 C 70.925 126.894,71.600 126.432,71.600 126.137 C 71.600 125.104,72.285 125.614,72.986 127.169 C 73.378 128.039,73.907 128.657,74.172 128.555 C 74.435 128.455,74.909 128.857,75.225 129.450 L 75.800 130.528 76.070 128.764 C 76.219 127.794,76.355 124.300,76.372 121.000 C 76.450 106.222,78.298 98.370,82.161 96.400 C 84.265 95.327,84.146 95.554,85.786 89.531 C 86.474 87.006,87.901 85.760,90.612 85.321 C 92.238 85.057,92.980 84.143,93.368 81.929 C 93.720 79.920,95.457 78.168,97.628 77.634 C 101.257 76.741,101.366 76.669,102.400 74.506 C 103.609 71.976,104.245 71.498,107.600 70.600 C 110.081 69.936,111.110 69.727,116.600 68.767 C 117.920 68.536,119.671 67.909,120.491 67.373 C 121.312 66.838,122.177 66.400,122.415 66.400 C 122.653 66.400,122.729 66.209,122.584 65.975 C 120.612 62.783,136.627 61.935,199.000 61.931 C 219.900 61.930,245.910 61.910,256.800 61.887 C 276.174 61.846,281.661 62.117,288.517 63.453 C 289.812 63.706,291.500 65.331,292.064 66.869 C 292.414 67.821,292.768 67.987,295.328 68.394 C 296.908 68.646,298.722 69.020,299.360 69.226 C 299.998 69.432,300.907 69.600,301.381 69.600 C 303.329 69.600,306.189 71.517,307.414 73.643 C 308.491 75.511,308.839 75.785,311.200 76.628 C 312.978 77.263,314.193 78.006,315.042 78.978 C 315.726 79.760,316.549 80.400,316.871 80.400 C 320.379 80.400,323.247 83.512,323.797 87.916 C 324.164 90.851,324.855 91.818,326.966 92.350 C 329.033 92.870,329.380 93.547,329.965 98.200 C 331.428 109.829,331.795 111.293,333.585 112.634 C 335.933 114.394,336.400 115.457,336.400 119.041 C 336.400 120.755,336.594 124.147,336.830 126.579 C 337.127 129.635,337.147 135.941,336.893 147.000 C 336.681 156.198,336.671 166.656,336.869 171.600 C 337.765 194.039,337.241 268.387,336.172 270.455 C 335.374 271.998,333.958 273.439,332.921 273.765 C 332.234 273.980,331.991 274.449,331.803 275.920 C 331.671 276.954,331.373 278.970,331.141 280.400 C 330.909 281.830,330.641 284.350,330.545 286.000 C 330.274 290.676,330.085 291.357,328.570 293.127 C 327.790 294.038,327.027 294.756,326.876 294.722 C 326.659 294.673,324.694 295.457,324.075 295.839 C 324.007 295.881,323.358 297.685,322.633 299.848 C 321.196 304.138,319.774 305.843,317.395 306.130 C 314.980 306.421,313.315 307.839,313.011 309.864 C 312.679 312.079,310.525 314.400,308.803 314.400 C 308.346 314.400,307.573 314.652,307.086 314.960 C 306.599 315.268,304.760 315.621,303.000 315.744 C 301.240 315.868,299.761 315.976,299.713 315.984 C 298.905 316.129,300.430 317.200,301.443 317.200 C 302.189 317.200,302.800 317.350,302.800 317.533 C 302.800 317.717,303.025 317.886,303.300 317.910 C 304.662 318.028,305.373 318.322,305.535 318.835 C 305.634 319.146,306.084 319.928,306.536 320.573 C 307.212 321.538,307.242 321.702,306.700 321.494 C 305.719 321.117,306.259 322.216,307.434 322.985 C 308.316 323.564,308.400 323.563,308.400 322.980 C 308.400 322.587,308.669 322.393,309.099 322.476 C 309.485 322.550,309.799 322.967,309.799 323.405 C 309.801 324.883,314.868 325.684,317.432 324.612 C 319.003 323.956,319.438 319.940,318.000 319.377 C 316.499 318.791,318.838 318.049,321.461 318.280 C 323.720 318.478,324.137 318.404,324.808 317.684 C 325.229 317.231,326.210 316.631,326.987 316.350 C 327.764 316.069,328.400 315.695,328.400 315.520 C 328.400 314.951,329.858 313.723,330.842 313.462 C 331.566 313.270,332.190 312.370,333.400 309.771 C 336.230 303.692,336.111 303.856,338.192 303.152 C 340.464 302.383,341.200 301.076,341.200 297.809 C 341.200 292.043,342.825 288.100,345.850 286.530 C 347.154 285.853,348.093 285.080,348.193 284.600 C 348.705 282.149,349.267 274.695,349.603 265.913 C 349.813 260.432,350.084 255.787,350.206 255.591 C 350.444 255.205,351.088 221.615,351.470 189.700 C 351.617 177.384,351.851 170.000,352.094 170.000 C 352.653 170.000,352.106 155.542,351.162 145.400 C 350.732 140.780,350.210 132.320,350.000 126.600 C 349.389 109.875,348.507 99.969,347.603 99.668 C 344.465 98.622,341.724 93.285,340.994 86.800 C 340.604 83.340,340.424 83.080,337.846 82.267 C 335.410 81.499,334.291 80.318,333.807 78.000 C 333.346 75.801,332.112 74.099,330.618 73.606 C 328.804 73.007,327.289 71.415,326.798 69.591 C 326.335 67.872,324.192 66.000,322.686 66.000 C 319.885 66.000,318.401 64.623,317.835 61.497 C 317.496 59.625,316.487 58.959,313.574 58.683 C 307.873 58.145,303.200 55.482,303.200 52.772 C 303.200 51.606,299.995 50.880,293.600 50.597 C 290.410 50.455,284.380 49.991,280.200 49.566 C 276.020 49.141,268.910 48.615,264.400 48.399 C 245.636 47.499,240.755 47.193,239.057 46.813 C 237.967 46.569,229.015 46.434,216.135 46.469 C 204.511 46.501,193.110 46.431,190.800 46.315 C 188.490 46.198,181.920 46.236,176.200 46.398 M281.905 99.303 C 280.615 99.742,279.263 100.606,278.305 101.603 C 277.461 102.481,276.618 103.200,276.432 103.200 C 275.266 103.200,274.301 107.652,274.588 111.705 C 274.936 116.614,275.412 117.653,277.871 118.869 C 279.898 119.872,282.800 122.533,282.800 123.389 C 282.800 124.223,283.777 124.400,288.369 124.400 L 292.673 124.400 293.164 122.761 C 293.827 120.549,296.442 117.786,298.529 117.091 L 300.200 116.535 300.317 112.768 C 300.467 107.945,300.335 107.482,298.627 106.864 C 296.746 106.184,294.525 103.524,294.192 101.553 C 293.733 98.834,286.939 97.589,281.905 99.303 M189.800 122.671 C 178.481 123.334,178.024 123.453,177.939 125.749 C 177.857 127.974,177.836 128.086,177.330 128.971 C 177.087 129.395,176.554 129.789,176.144 129.847 C 175.735 129.904,174.140 130.144,172.600 130.379 C 171.060 130.613,168.540 130.919,167.000 131.057 C 163.371 131.383,163.048 131.657,163.344 134.156 C 163.634 136.609,163.840 136.817,166.111 136.969 C 167.218 137.043,168.363 137.427,169.022 137.946 C 169.619 138.415,170.309 138.803,170.554 138.806 C 170.803 138.810,170.755 138.967,170.446 139.163 C 169.687 139.643,171.108 140.400,172.768 140.400 C 173.439 140.400,174.791 140.615,175.772 140.877 C 177.164 141.249,178.634 141.243,182.477 140.847 C 189.050 140.171,188.647 140.364,188.954 137.754 C 189.230 135.401,189.818 134.463,191.050 134.409 C 191.463 134.391,194.500 134.176,197.800 133.930 C 203.776 133.485,206.888 133.646,215.374 134.840 C 217.736 135.172,218.342 135.430,219.451 136.572 C 220.168 137.309,220.869 137.797,221.010 137.656 C 221.151 137.515,221.230 137.580,221.186 137.800 C 220.838 139.527,221.611 139.937,226.803 140.784 C 234.057 141.968,235.356 142.671,238.106 146.903 C 238.494 147.501,239.538 148.360,240.426 148.814 C 241.418 149.320,242.496 150.355,243.221 151.497 C 243.869 152.520,244.400 153.242,244.400 153.103 C 244.400 152.365,248.068 154.192,248.686 155.237 C 249.063 155.877,249.523 156.400,249.707 156.400 C 250.274 156.400,251.200 159.090,251.200 160.737 C 251.200 164.258,251.455 164.667,253.955 165.159 C 256.417 165.644,257.264 166.344,257.934 168.448 C 258.416 169.962,259.930 180.021,260.094 182.800 C 260.164 183.984,260.371 184.566,260.700 184.500 C 260.975 184.445,261.203 184.715,261.206 185.100 C 261.211 185.698,261.269 185.713,261.600 185.200 C 261.945 184.667,261.989 184.667,262.000 185.200 C 262.011 185.733,262.055 185.733,262.400 185.200 C 262.722 184.702,262.790 184.736,262.800 185.400 C 262.810 186.064,262.878 186.098,263.200 185.600 C 263.523 185.101,263.594 185.135,263.622 185.800 L 263.656 186.600 264.000 185.800 L 264.344 185.000 264.449 185.800 C 264.507 186.240,264.565 189.570,264.577 193.200 C 264.602 200.455,264.992 202.232,266.648 202.648 C 267.171 202.779,267.478 203.073,267.335 203.306 C 267.171 203.571,267.387 203.644,267.919 203.505 C 269.242 203.159,270.325 204.127,269.596 205.004 C 269.123 205.575,268.610 205.652,266.663 205.449 C 264.597 205.233,264.366 205.277,264.801 205.801 C 265.467 206.604,264.648 206.590,263.843 205.785 C 263.505 205.447,262.938 204.680,262.584 204.081 C 261.231 201.790,260.074 201.819,259.835 204.148 C 258.931 212.989,259.288 220.645,260.600 220.530 C 261.389 220.460,261.389 220.467,260.624 221.030 C 260.189 221.349,260.071 221.600,260.354 221.600 C 260.843 221.600,261.507 220.972,264.294 217.873 C 265.905 216.082,267.461 215.143,267.051 216.210 C 266.818 216.817,266.869 216.840,267.425 216.379 C 267.779 216.086,268.346 215.151,268.686 214.302 C 269.157 213.123,269.582 212.704,270.483 212.523 C 271.402 212.340,271.619 212.117,271.463 211.521 C 271.319 210.969,271.394 210.863,271.731 211.141 C 272.869 212.079,275.970 211.180,276.185 209.849 C 276.296 209.162,276.570 207.532,276.793 206.227 C 277.726 200.782,277.042 172.204,275.962 171.483 C 275.873 171.423,274.965 170.972,273.944 170.481 C 272.108 169.598,271.135 168.752,270.929 167.860 C 270.870 167.607,270.548 166.320,270.212 165.000 C 269.876 163.680,269.488 161.070,269.348 159.200 C 269.047 155.173,268.391 153.600,267.016 153.600 C 264.617 153.600,262.800 151.730,262.800 149.261 C 262.800 147.912,260.099 143.910,258.746 143.255 C 258.050 142.918,257.151 142.085,256.750 141.405 C 256.349 140.725,255.206 139.594,254.210 138.892 C 253.215 138.191,252.400 137.447,252.400 137.240 C 252.400 137.033,251.865 136.746,251.211 136.602 C 249.759 136.283,248.000 134.290,248.000 132.964 C 248.000 131.763,244.529 130.006,242.126 129.990 C 238.082 129.964,233.950 127.703,233.404 125.217 C 233.261 124.568,232.842 123.954,232.472 123.853 C 225.919 122.067,208.375 121.581,189.800 122.671 M155.500 139.425 C 155.140 139.795,155.116 141.844,155.456 143.117 C 155.942 144.930,159.938 143.500,160.730 141.230 C 161.012 140.419,161.019 139.935,160.749 139.768 C 160.099 139.367,155.828 139.087,155.500 139.425 M168.914 145.805 C 168.469 146.117,167.996 146.262,167.862 146.129 C 167.729 145.995,167.310 146.137,166.933 146.443 C 166.479 146.812,166.348 146.831,166.547 146.500 C 166.712 146.225,166.666 146.000,166.443 146.000 C 166.221 146.000,165.856 146.315,165.632 146.700 C 165.247 147.361,165.224 147.359,165.212 146.676 C 165.205 146.278,165.017 146.066,164.793 146.204 C 164.570 146.342,164.489 146.621,164.614 146.823 C 164.739 147.025,164.576 147.089,164.251 146.964 C 163.103 146.524,162.385 152.357,163.388 153.980 C 163.634 154.379,163.574 154.433,163.162 154.185 C 162.714 153.915,162.694 153.963,163.066 154.423 C 163.322 154.740,163.562 155.180,163.599 155.400 C 163.781 156.480,164.003 155.944,164.027 154.367 C 164.119 148.397,164.049 148.491,168.577 148.295 C 170.544 148.210,172.215 147.956,172.290 147.731 C 172.493 147.122,171.536 144.917,171.320 145.497 C 171.192 145.841,170.919 145.878,170.430 145.616 C 169.943 145.355,169.472 145.414,168.914 145.805 M147.735 149.500 C 147.853 150.545,147.961 151.439,147.975 151.487 C 147.989 151.536,148.269 151.472,148.598 151.346 C 148.926 151.219,149.091 150.948,148.964 150.742 C 148.837 150.536,149.190 150.008,149.748 149.569 C 151.100 148.506,150.717 147.600,148.917 147.600 L 147.520 147.600 147.735 149.500 M155.295 162.310 C 154.652 163.673,154.670 164.264,155.361 164.530 C 156.119 164.820,156.401 164.466,156.394 163.233 C 156.384 161.563,155.857 161.120,155.295 162.310 M270.313 207.533 C 270.141 207.607,269.979 208.417,269.954 209.333 L 269.908 211.000 269.583 209.400 C 269.376 208.376,269.428 207.311,269.729 206.441 L 270.200 205.082 270.413 206.241 C 270.530 206.878,270.485 207.460,270.313 207.533 M265.608 225.184 C 264.531 227.294,264.582 227.745,266.031 228.964 C 268.121 230.723,268.996 229.612,268.545 225.773 C 268.211 222.927,266.894 222.663,265.608 225.184 M259.400 235.600 C 258.969 236.297,259.608 236.892,260.231 236.374 C 260.539 236.118,260.693 235.750,260.572 235.555 C 260.280 235.083,259.706 235.105,259.400 235.600 M298.395 328.844 C 296.248 329.156,292.950 330.632,292.650 331.414 C 292.265 332.418,301.053 333.103,302.014 332.145 C 303.127 331.034,300.405 328.551,298.395 328.844 " stroke="none" fill="#c62f8e" fill-rule="evenodd"></path><path id="path1" d="M147.200 40.830 C 129.905 41.246,125.562 41.784,119.400 44.272 C 116.980 45.249,112.480 46.653,109.400 47.392 C 102.110 49.140,99.830 50.026,97.400 52.054 C 96.300 52.972,94.140 54.311,92.600 55.030 C 87.908 57.219,85.806 58.928,77.883 66.997 C 75.289 69.639,72.332 73.060,71.312 74.600 C 70.291 76.140,68.682 78.244,67.735 79.276 C 65.692 81.502,64.848 83.246,63.222 88.600 C 62.554 90.800,61.565 93.320,61.024 94.200 C 57.631 99.719,56.978 102.299,55.608 115.600 C 53.206 138.923,54.156 240.661,57.010 265.800 C 58.596 279.767,60.311 286.618,61.839 285.094 C 62.630 284.305,61.972 270.716,61.031 268.400 C 58.795 262.896,57.825 248.730,57.391 215.200 C 57.256 204.750,57.067 192.960,56.972 189.000 C 55.716 136.825,57.428 107.233,62.202 98.600 C 63.414 96.408,66.099 89.027,67.176 84.929 C 67.499 83.701,68.049 82.939,69.252 82.054 C 71.100 80.695,71.592 80.072,72.979 77.331 C 74.024 75.268,75.527 73.495,77.330 72.200 C 77.942 71.760,78.834 70.770,79.312 70.000 C 80.833 67.547,83.345 65.112,85.156 64.334 C 86.123 63.919,87.935 62.550,89.183 61.290 C 91.123 59.333,91.846 58.890,94.156 58.242 C 95.643 57.825,97.481 57.062,98.241 56.546 C 99.001 56.031,100.112 55.355,100.711 55.045 C 101.310 54.735,102.396 53.911,103.124 53.214 C 104.753 51.656,106.415 51.053,110.800 50.433 C 112.670 50.168,116.180 49.598,118.600 49.167 C 121.020 48.735,124.509 48.201,126.354 47.980 C 128.199 47.760,130.449 47.416,131.354 47.218 C 132.259 47.019,140.020 46.832,148.600 46.802 C 157.180 46.773,169.780 46.615,176.600 46.451 C 183.420 46.287,193.140 46.271,198.200 46.417 C 203.260 46.562,213.906 46.590,221.858 46.480 C 232.145 46.337,237.013 46.416,238.731 46.754 C 241.022 47.205,245.475 47.491,264.400 48.399 C 268.910 48.615,276.020 49.141,280.200 49.566 C 284.380 49.991,290.410 50.455,293.600 50.597 C 299.995 50.880,303.200 51.606,303.200 52.772 C 303.200 55.482,307.873 58.145,313.574 58.683 C 316.487 58.959,317.496 59.625,317.835 61.497 C 318.401 64.623,319.885 66.000,322.686 66.000 C 324.192 66.000,326.335 67.872,326.798 69.591 C 327.289 71.415,328.804 73.007,330.618 73.606 C 332.112 74.099,333.346 75.801,333.807 78.000 C 334.291 80.318,335.410 81.499,337.846 82.267 C 340.424 83.080,340.604 83.340,340.994 86.800 C 341.724 93.285,344.465 98.622,347.603 99.668 C 348.507 99.969,349.389 109.875,350.000 126.600 C 350.210 132.320,350.766 140.870,351.237 145.600 C 351.961 152.875,352.105 157.127,352.169 173.200 C 352.211 183.650,352.483 197.690,352.772 204.400 C 353.146 213.061,353.203 220.371,352.969 229.600 C 352.788 236.750,352.606 247.820,352.566 254.200 C 352.448 272.987,349.836 289.173,346.265 293.253 C 345.231 294.434,344.024 296.363,343.583 297.539 C 342.169 301.315,339.037 306.772,336.707 309.521 C 336.092 310.247,334.886 312.227,334.029 313.921 C 332.541 316.857,332.345 317.063,329.807 318.358 C 328.085 319.236,326.553 320.413,325.472 321.687 C 324.514 322.817,322.861 324.140,321.600 324.788 C 320.390 325.409,318.500 326.564,317.400 327.354 C 310.716 332.153,310.158 332.435,303.200 334.541 C 298.884 335.848,296.638 336.391,287.200 338.412 C 285.110 338.859,282.746 339.400,281.947 339.614 C 273.354 341.918,190.435 341.397,181.600 338.983 C 179.869 338.511,177.866 338.426,172.200 338.589 C 162.731 338.860,150.882 339.271,149.500 339.376 C 148.895 339.422,147.920 339.492,147.333 339.530 C 145.276 339.665,146.705 339.998,151.830 340.576 C 183.017 344.099,270.757 345.018,288.073 342.005 C 290.995 341.496,293.490 340.754,295.883 339.681 C 297.818 338.814,302.233 337.176,305.696 336.040 C 313.757 333.396,315.121 332.797,317.668 330.784 C 318.820 329.873,320.950 328.530,322.402 327.799 C 324.313 326.837,325.688 325.733,327.386 323.798 C 328.676 322.329,330.451 320.673,331.330 320.118 C 333.390 318.818,334.941 317.110,336.393 314.545 C 337.033 313.414,338.379 311.815,339.385 310.991 C 341.199 309.504,341.330 309.281,345.352 300.746 C 345.937 299.506,346.970 297.796,347.648 296.946 C 349.509 294.613,350.612 292.105,351.143 289.000 C 351.977 284.123,354.802 269.573,355.814 264.943 C 357.286 258.202,357.604 248.894,357.995 201.000 C 358.487 140.678,357.865 124.377,354.605 112.200 C 354.075 110.220,352.990 105.192,352.195 101.026 C 350.564 92.486,350.224 91.483,347.964 88.553 C 347.078 87.405,345.755 85.046,345.023 83.311 C 342.719 77.848,341.559 75.883,339.526 74.005 C 338.440 73.001,336.698 70.924,335.655 69.390 C 334.549 67.763,332.934 66.016,331.779 65.200 C 330.691 64.430,328.540 62.526,327.000 60.970 C 324.450 58.392,322.384 56.972,316.600 53.820 C 315.500 53.221,313.700 52.118,312.600 51.369 C 310.182 49.723,307.859 48.882,300.573 47.014 C 297.514 46.231,293.389 44.968,291.406 44.209 C 286.241 42.231,283.476 41.690,275.800 41.154 C 267.550 40.579,168.108 40.328,147.200 40.830 M231.400 62.020 C 228.100 62.198,207.580 62.423,185.800 62.522 C 132.612 62.763,128.185 63.112,119.800 67.732 C 119.140 68.095,117.117 68.774,115.304 69.239 C 111.529 70.208,107.391 72.495,104.971 74.948 C 104.075 75.857,101.767 77.492,99.844 78.582 C 96.798 80.307,96.137 80.886,94.734 83.055 C 93.848 84.426,92.053 86.478,90.745 87.616 C 88.468 89.595,85.926 93.669,85.014 96.800 C 84.854 97.350,83.998 99.394,83.113 101.342 C 78.592 111.290,77.641 122.986,77.223 173.800 C 76.755 230.727,77.147 264.951,78.278 265.994 C 78.401 266.107,78.443 256.570,78.371 244.800 C 78.221 220.106,78.989 152.829,79.587 138.400 C 80.478 116.880,80.779 114.839,84.190 107.200 C 85.124 105.110,86.302 102.140,86.809 100.600 C 88.942 94.116,89.891 92.370,93.113 88.995 C 94.811 87.216,96.957 84.845,97.883 83.726 C 99.023 82.348,100.572 81.140,102.683 79.985 C 104.397 79.047,107.132 77.383,108.759 76.287 C 113.493 73.102,124.756 69.996,135.200 68.997 C 136.630 68.861,140.347 68.403,143.461 67.979 C 155.916 66.287,242.559 65.815,258.800 67.352 C 262.430 67.695,267.560 68.177,270.200 68.422 C 275.108 68.878,290.043 71.547,294.000 72.675 C 296.904 73.503,299.839 75.004,301.751 76.638 C 302.604 77.367,304.710 78.697,306.432 79.592 C 308.558 80.698,310.050 81.814,311.081 83.069 C 312.578 84.891,314.259 86.607,317.400 89.517 C 318.596 90.626,319.325 91.859,320.287 94.406 C 320.995 96.280,322.307 98.980,323.204 100.406 C 327.885 107.858,328.407 110.882,329.866 139.000 C 330.688 154.835,330.838 234.533,330.072 248.800 C 328.741 273.616,327.781 279.306,323.917 285.276 C 323.019 286.664,321.518 289.420,320.581 291.400 C 318.623 295.540,311.733 303.149,308.458 304.787 C 307.500 305.267,305.592 306.705,304.218 307.984 C 301.063 310.918,301.457 310.728,293.437 313.181 C 289.717 314.318,286.016 315.584,285.213 315.994 C 279.488 318.914,266.325 319.801,219.200 320.440 C 177.144 321.011,172.070 321.318,198.366 321.701 C 226.940 322.117,249.266 322.076,258.000 321.593 C 280.413 320.352,283.641 319.950,288.493 317.787 C 290.312 316.977,293.994 315.553,296.675 314.624 C 301.885 312.817,303.852 311.606,305.540 309.166 C 306.272 308.107,307.477 307.194,309.438 306.212 C 314.393 303.732,319.891 297.714,322.169 292.278 C 322.796 290.780,324.017 288.710,324.882 287.678 C 327.831 284.156,329.615 279.730,331.035 272.406 C 331.568 269.653,332.184 266.500,332.402 265.400 C 334.151 256.589,334.424 253.043,334.813 234.000 C 335.026 223.550,335.382 210.680,335.604 205.400 C 335.826 200.120,336.196 184.730,336.426 171.200 C 337.349 117.046,337.269 115.395,333.585 112.634 C 331.795 111.293,331.428 109.829,329.965 98.200 C 329.380 93.547,329.033 92.870,326.966 92.350 C 324.855 91.818,324.164 90.851,323.797 87.916 C 323.247 83.512,320.379 80.400,316.871 80.400 C 316.549 80.400,315.726 79.760,315.042 78.978 C 314.193 78.006,312.978 77.263,311.200 76.628 C 308.839 75.785,308.491 75.511,307.414 73.643 C 306.189 71.517,303.329 69.600,301.381 69.600 C 300.907 69.600,299.998 69.432,299.360 69.226 C 298.722 69.020,296.908 68.646,295.328 68.394 C 292.768 67.987,292.414 67.821,292.064 66.869 C 291.465 65.235,289.747 63.661,288.301 63.419 C 280.297 62.083,276.843 61.902,257.400 61.802 C 246.400 61.745,234.700 61.843,231.400 62.020 M279.631 95.703 C 274.314 97.822,273.448 98.699,271.443 103.990 C 267.779 113.663,271.755 124.372,279.976 126.969 C 289.867 130.093,297.836 127.150,302.913 118.497 C 305.369 114.313,303.832 103.065,300.293 99.321 C 298.363 97.280,293.115 94.931,289.800 94.625 C 288.260 94.483,286.280 94.293,285.400 94.204 C 284.196 94.081,282.769 94.452,279.631 95.703 M292.863 99.433 C 293.640 99.834,293.998 100.407,294.192 101.553 C 294.525 103.524,296.746 106.184,298.627 106.864 C 300.335 107.482,300.467 107.945,300.317 112.768 L 300.200 116.535 298.529 117.091 C 296.442 117.786,293.827 120.549,293.164 122.761 L 292.673 124.400 288.369 124.400 C 283.777 124.400,282.800 124.223,282.800 123.389 C 282.800 122.533,279.898 119.872,277.871 118.869 C 275.412 117.653,274.936 116.614,274.588 111.705 C 274.301 107.652,275.266 103.200,276.432 103.200 C 276.618 103.200,277.461 102.481,278.305 101.603 C 281.000 98.798,289.254 97.568,292.863 99.433 M199.457 114.849 C 197.508 115.037,194.268 115.715,192.257 116.356 C 190.246 116.997,186.710 117.923,184.400 118.414 C 176.153 120.166,171.606 121.856,168.774 124.221 C 167.807 125.030,165.721 126.323,164.140 127.094 C 161.164 128.546,159.945 129.482,152.331 136.165 C 147.503 140.402,146.511 141.546,143.096 146.821 C 141.893 148.680,140.503 150.560,140.008 151.000 C 138.304 152.513,136.806 155.138,135.763 158.443 C 135.187 160.264,133.950 163.384,133.013 165.377 C 127.151 177.841,126.783 209.477,132.405 217.600 C 133.752 219.546,135.188 222.765,135.975 225.605 C 136.873 228.846,138.215 231.353,140.017 233.155 C 140.689 233.828,141.905 235.342,142.720 236.521 C 143.534 237.700,144.943 239.733,145.851 241.038 C 146.759 242.344,148.649 244.460,150.051 245.742 C 151.453 247.024,153.349 248.981,154.265 250.090 C 155.902 252.075,158.514 253.823,164.000 256.605 C 165.430 257.330,167.140 258.501,167.800 259.207 C 170.208 261.783,172.231 262.651,181.389 265.036 C 183.363 265.550,186.063 266.511,187.389 267.171 C 192.585 269.758,194.966 270.046,207.667 269.622 C 219.506 269.227,220.012 269.151,225.096 267.018 C 226.469 266.442,229.709 265.418,232.296 264.741 C 237.714 263.325,239.757 262.377,244.200 259.217 C 245.960 257.965,248.210 256.623,249.200 256.234 C 252.631 254.885,253.717 254.207,254.955 252.638 C 256.555 250.611,258.629 248.542,260.722 246.885 C 261.635 246.161,262.951 244.721,263.645 243.685 C 264.340 242.648,266.099 240.630,267.554 239.200 C 269.666 237.125,270.394 236.075,271.159 234.000 C 272.509 230.338,274.201 227.058,275.534 225.517 C 280.391 219.905,283.498 198.877,281.778 183.252 C 280.450 171.188,278.373 163.273,275.633 159.836 C 274.947 158.976,273.252 155.916,271.866 153.036 C 270.012 149.183,268.894 147.377,267.633 146.200 C 266.690 145.320,265.058 143.340,264.006 141.800 C 261.901 138.721,261.019 137.805,258.537 136.126 C 257.622 135.507,256.028 133.969,254.995 132.708 C 253.364 130.719,252.446 130.076,248.058 127.844 C 245.276 126.430,242.280 124.698,241.400 123.996 C 238.748 121.880,236.493 120.973,230.071 119.437 C 226.701 118.631,222.827 117.552,221.463 117.038 C 214.702 114.493,209.023 113.928,199.457 114.849 M216.600 118.338 C 218.580 118.825,220.621 119.402,221.135 119.619 C 221.649 119.837,225.245 120.835,229.126 121.838 C 235.937 123.598,236.250 123.724,238.088 125.444 C 239.136 126.424,240.849 127.590,241.896 128.035 C 247.696 130.502,250.180 132.117,252.744 135.090 C 254.144 136.713,256.268 138.764,257.465 139.648 C 258.662 140.532,260.253 142.098,261.001 143.128 C 261.748 144.158,263.545 146.052,264.994 147.338 C 267.657 149.701,269.908 153.352,271.199 157.400 C 271.916 159.649,273.416 162.550,274.198 163.198 C 275.796 164.525,277.059 168.715,278.659 178.000 C 279.797 184.607,279.687 201.348,278.465 207.600 C 276.211 219.130,276.078 219.588,274.449 221.439 C 273.068 223.008,269.534 231.136,268.580 234.937 C 268.421 235.571,267.679 236.352,266.660 236.957 C 264.377 238.314,262.641 239.991,261.246 242.192 C 260.463 243.426,259.281 244.522,257.733 245.448 C 255.127 247.006,254.406 247.769,253.006 250.448 C 252.175 252.036,251.793 252.357,250.279 252.739 C 247.223 253.508,241.433 256.664,239.593 258.562 C 238.648 259.537,237.228 260.604,236.437 260.934 C 234.164 261.882,228.053 263.661,225.104 264.234 C 223.622 264.522,221.822 265.016,221.104 265.330 C 214.917 268.043,199.103 268.658,193.402 266.408 C 190.260 265.168,187.273 264.261,182.692 263.157 C 176.250 261.605,172.588 260.068,171.191 258.328 C 170.323 257.249,169.047 256.349,167.253 255.551 C 161.931 253.185,161.375 252.811,159.200 250.145 C 158.650 249.470,157.480 248.466,156.600 247.912 C 155.720 247.359,153.650 245.530,152.000 243.847 C 150.350 242.164,148.231 240.025,147.290 239.094 C 146.350 238.162,144.961 236.101,144.204 234.514 C 143.447 232.926,142.108 230.908,141.229 230.029 C 140.030 228.830,139.474 227.829,139.009 226.034 C 138.667 224.716,138.012 222.775,137.551 221.719 C 137.091 220.664,136.386 218.862,135.984 217.715 C 135.582 216.568,134.511 214.380,133.603 212.852 C 130.031 206.840,129.355 175.139,132.721 171.462 C 133.783 170.301,135.013 167.788,135.590 165.598 C 135.851 164.609,136.384 163.249,136.774 162.575 C 137.165 161.902,137.964 159.910,138.551 158.148 C 139.371 155.685,139.993 154.582,141.243 153.373 C 142.137 152.508,143.327 150.900,143.886 149.800 C 145.181 147.253,148.003 143.200,148.482 143.200 C 148.683 143.200,150.412 141.679,152.324 139.820 C 154.236 137.961,156.520 135.922,157.400 135.288 C 158.280 134.654,159.256 133.654,159.569 133.065 C 160.259 131.767,163.022 129.947,166.000 128.829 C 167.210 128.375,169.730 127.015,171.600 125.807 C 175.367 123.373,178.187 122.382,187.000 120.394 C 190.080 119.700,193.140 118.948,193.800 118.723 C 199.107 116.919,210.082 116.733,216.600 118.338 M198.000 140.423 C 188.214 141.197,181.119 143.392,176.835 146.971 C 175.888 147.762,173.917 149.065,172.456 149.867 C 169.249 151.627,167.772 152.924,166.780 154.852 C 166.369 155.650,164.862 157.332,163.430 158.588 C 160.695 160.990,159.237 163.465,157.180 169.200 C 156.668 170.630,155.656 172.534,154.933 173.431 C 148.667 181.198,148.693 205.777,154.975 212.538 C 155.557 213.164,156.724 215.517,157.569 217.767 C 159.677 223.378,160.063 224.036,162.556 226.258 C 163.754 227.326,164.853 228.670,164.997 229.245 C 165.466 231.115,167.632 233.265,170.238 234.446 C 171.927 235.212,172.975 235.989,173.530 236.885 C 175.426 239.948,176.860 240.785,183.994 242.989 C 186.308 243.704,188.830 244.653,189.600 245.099 C 196.079 248.851,211.853 248.967,217.922 245.308 C 219.389 244.423,222.019 243.449,225.310 242.572 C 231.442 240.938,232.409 240.474,235.000 237.924 C 236.100 236.841,237.900 235.370,239.000 234.655 C 240.273 233.827,241.654 232.390,242.800 230.700 C 243.790 229.241,245.346 227.508,246.259 226.851 C 248.274 225.398,249.638 223.661,250.895 220.948 C 251.416 219.823,252.336 218.316,252.940 217.598 C 260.100 209.089,260.174 176.394,253.051 168.510 C 252.260 167.634,251.039 165.676,250.337 164.159 C 248.776 160.785,247.637 159.362,245.242 157.795 C 244.086 157.039,243.019 155.885,242.376 154.696 C 241.027 152.202,239.443 150.571,237.000 149.160 C 235.900 148.525,234.370 147.446,233.600 146.762 C 227.988 141.776,213.507 139.198,198.000 140.423 M216.536 142.800 C 224.170 144.188,227.573 145.490,230.971 148.322 C 232.055 149.225,233.980 150.517,235.248 151.194 C 236.605 151.917,238.264 153.268,239.277 154.476 C 240.225 155.605,242.278 157.805,243.840 159.364 C 245.873 161.394,247.104 163.065,248.174 165.246 C 248.996 166.921,250.485 169.225,251.483 170.366 C 257.996 177.812,258.464 205.209,252.233 214.305 C 251.519 215.347,250.185 217.646,249.268 219.413 C 248.216 221.441,246.605 223.672,244.900 225.460 C 243.415 227.018,241.429 229.208,240.487 230.325 C 239.544 231.442,237.834 232.896,236.687 233.555 C 235.539 234.214,233.790 235.584,232.800 236.601 C 230.180 239.291,229.126 239.817,223.591 241.198 C 217.611 242.691,215.197 243.433,212.800 244.514 C 209.439 246.031,201.523 245.751,194.600 243.872 C 180.853 240.141,179.022 239.369,176.095 236.076 C 174.557 234.345,172.891 232.965,171.412 232.195 C 169.934 231.426,168.739 230.436,168.058 229.417 C 167.476 228.546,165.641 226.441,163.981 224.739 C 161.044 221.729,160.897 221.481,158.618 215.722 C 157.329 212.465,155.963 209.350,155.583 208.800 C 152.061 203.706,151.702 183.885,155.029 178.288 C 156.251 176.233,156.940 174.738,159.401 168.800 C 161.653 163.369,162.286 162.392,164.580 160.814 C 165.530 160.160,167.238 158.441,168.375 156.993 C 169.513 155.546,171.109 153.911,171.922 153.362 C 172.735 152.812,174.821 151.426,176.559 150.281 C 178.296 149.137,180.546 147.628,181.559 146.930 C 187.793 142.630,204.649 140.640,216.536 142.800 M84.001 289.000 C 83.978 289.440,83.862 290.565,83.742 291.500 C 83.603 292.596,83.681 293.200,83.963 293.200 C 84.203 293.200,84.403 292.885,84.406 292.500 C 84.411 291.955,84.488 291.920,84.756 292.343 C 85.520 293.548,85.571 291.963,84.827 290.130 C 84.359 288.978,84.027 288.523,84.001 289.000 M66.567 298.567 C 66.905 300.368,67.629 301.657,68.197 301.468 C 69.070 301.177,68.801 299.907,67.572 298.507 L 66.280 297.036 66.567 298.567 " stroke="none" fill="#b66da7" fill-rule="evenodd"></path><path id="path2" d="M130.307 47.426 C 130.245 47.488,128.666 47.717,126.797 47.935 C 123.922 48.271,113.727 49.902,110.400 50.559 C 107.812 51.070,115.633 50.309,120.600 49.566 C 132.688 47.760,132.647 47.767,131.509 47.536 C 130.910 47.414,130.368 47.365,130.307 47.426 M103.304 53.049 C 101.530 54.632,99.426 56.005,97.104 57.097 C 95.744 57.736,94.914 58.734,96.100 58.304 C 96.375 58.205,97.828 57.690,99.329 57.162 C 102.569 56.020,104.286 54.678,104.782 52.900 C 105.229 51.296,105.274 51.292,103.304 53.049 M88.393 62.207 C 87.873 62.761,86.524 63.651,85.395 64.185 C 83.294 65.179,80.857 67.509,79.312 70.000 C 78.834 70.770,77.942 71.760,77.330 72.200 C 75.527 73.495,74.024 75.268,72.979 77.331 C 71.592 80.072,71.100 80.695,69.252 82.054 C 68.049 82.939,67.499 83.701,67.176 84.929 C 66.099 89.027,63.414 96.408,62.202 98.600 C 57.428 107.233,55.716 136.825,56.972 189.000 C 57.067 192.960,57.256 204.750,57.391 215.200 C 57.826 248.747,58.794 262.895,61.034 268.407 C 61.862 270.444,61.959 271.384,62.033 278.032 L 62.114 285.400 63.419 287.600 C 64.821 289.962,65.286 291.280,66.007 294.924 C 66.318 296.496,66.859 297.695,67.679 298.629 C 68.475 299.535,68.819 300.283,68.682 300.806 C 68.464 301.642,68.579 301.695,71.645 302.185 C 73.564 302.491,74.383 303.488,74.655 305.848 C 74.954 308.451,75.720 309.600,77.155 309.600 C 78.350 309.600,80.384 308.274,80.422 307.471 C 80.481 306.220,82.931 304.998,85.184 305.097 C 87.858 305.213,89.725 305.898,89.433 306.657 C 89.319 306.956,89.399 307.200,89.613 307.200 C 89.826 307.200,90.000 307.441,90.000 307.736 C 90.000 308.226,91.867 309.410,92.448 309.287 C 92.584 309.258,93.732 309.150,94.999 309.046 C 97.884 308.809,98.713 308.151,96.552 307.813 C 94.294 307.459,93.070 306.729,92.479 305.385 C 92.193 304.733,91.783 303.930,91.568 303.600 C 91.353 303.270,90.867 302.473,90.489 301.828 C 90.110 301.184,89.136 299.915,88.324 299.010 C 87.340 297.912,86.620 296.542,86.163 294.896 C 85.786 293.539,85.340 292.514,85.173 292.617 C 85.005 292.720,84.777 292.579,84.666 292.302 C 84.544 291.999,84.451 292.078,84.432 292.500 C 84.414 292.885,84.206 293.200,83.968 293.200 C 83.678 293.200,83.623 292.413,83.800 290.798 C 84.061 288.419,84.048 288.378,82.468 286.583 C 80.788 284.674,80.230 283.013,79.784 278.600 C 79.651 277.280,79.191 273.566,78.763 270.346 C 76.985 256.984,76.691 238.552,77.223 173.800 C 77.641 122.986,78.592 111.290,83.113 101.342 C 83.998 99.394,84.854 97.350,85.014 96.800 C 85.926 93.669,88.468 89.595,90.745 87.616 C 92.053 86.478,93.848 84.426,94.734 83.055 C 96.137 80.886,96.798 80.307,99.844 78.582 C 101.767 77.492,104.075 75.865,104.971 74.967 C 106.886 73.047,110.008 71.032,112.688 69.984 C 115.061 69.057,113.808 68.973,110.584 69.843 C 109.273 70.197,107.502 70.653,106.648 70.857 C 104.407 71.392,103.527 72.148,102.400 74.506 C 101.366 76.669,101.257 76.741,97.628 77.634 C 95.457 78.168,93.720 79.920,93.368 81.929 C 92.980 84.143,92.238 85.057,90.612 85.321 C 87.901 85.760,86.474 87.006,85.786 89.531 C 84.146 95.554,84.265 95.327,82.161 96.400 C 78.298 98.370,76.450 106.222,76.372 121.000 C 76.355 124.300,76.219 127.794,76.070 128.764 L 75.800 130.528 75.225 129.450 C 74.909 128.857,74.435 128.455,74.172 128.555 C 73.907 128.657,73.378 128.039,72.986 127.169 C 72.285 125.614,71.600 125.104,71.600 126.137 C 71.600 126.432,70.925 126.894,70.100 127.163 C 69.275 127.432,68.411 127.733,68.180 127.833 C 67.949 127.932,67.023 127.383,66.123 126.613 L 64.487 125.212 64.222 126.623 C 64.076 127.400,64.076 128.410,64.221 128.868 C 64.385 129.383,64.332 129.605,64.083 129.451 C 63.839 129.300,63.686 129.793,63.696 130.701 C 63.778 138.654,63.254 153.552,62.865 154.278 C 62.609 154.756,62.400 155.808,62.400 156.616 C 62.400 158.136,61.395 163.105,60.761 164.719 C 60.562 165.224,60.372 166.034,60.338 166.519 C 60.304 167.003,60.142 165.870,59.978 164.000 C 59.612 159.827,59.502 114.426,59.852 111.873 L 60.104 110.034 62.744 109.917 C 65.791 109.782,66.625 108.790,65.716 106.383 C 65.434 105.637,65.419 105.288,65.674 105.445 C 65.922 105.599,65.909 105.377,65.640 104.875 C 65.080 103.829,65.070 99.995,65.623 98.541 C 65.855 97.929,66.298 95.802,66.608 93.814 C 68.024 84.707,67.803 85.232,70.916 83.575 C 72.756 82.595,73.889 80.835,74.239 78.413 C 74.582 76.030,75.501 74.507,76.771 74.212 C 79.850 73.496,80.779 72.569,81.393 69.600 C 81.724 67.999,83.810 65.600,84.870 65.600 C 86.308 65.600,88.659 64.346,89.321 63.227 C 90.569 61.114,90.004 60.493,88.393 62.207 M140.600 62.611 C 127.739 63.118,124.104 63.580,122.950 64.855 C 122.058 65.840,122.412 66.128,123.845 65.582 C 129.601 63.390,140.909 62.746,177.393 62.531 C 194.549 62.430,208.664 62.269,208.760 62.174 C 209.143 61.790,152.170 62.156,140.600 62.611 M199.479 117.658 C 197.016 118.019,194.460 118.499,193.800 118.723 C 193.140 118.948,190.080 119.700,187.000 120.394 C 178.187 122.382,175.367 123.373,171.600 125.807 C 169.730 127.015,167.210 128.375,166.000 128.829 C 163.022 129.947,160.259 131.767,159.569 133.065 C 159.256 133.654,158.280 134.654,157.400 135.288 C 156.520 135.922,154.236 137.961,152.324 139.820 C 150.412 141.679,148.683 143.200,148.482 143.200 C 148.003 143.200,145.181 147.253,143.886 149.800 C 143.327 150.900,142.137 152.508,141.243 153.373 C 139.993 154.582,139.371 155.685,138.551 158.148 C 137.964 159.910,137.165 161.902,136.774 162.575 C 136.384 163.249,135.851 164.609,135.590 165.598 C 135.013 167.788,133.783 170.301,132.721 171.462 C 129.355 175.139,130.031 206.840,133.603 212.852 C 134.511 214.380,135.582 216.568,135.984 217.715 C 136.386 218.862,137.091 220.664,137.551 221.719 C 138.012 222.775,138.667 224.716,139.009 226.034 C 139.474 227.829,140.030 228.830,141.229 230.029 C 142.108 230.908,143.447 232.926,144.204 234.514 C 144.961 236.101,146.350 238.162,147.290 239.094 C 148.231 240.025,150.350 242.164,152.000 243.847 C 153.650 245.530,155.720 247.359,156.600 247.912 C 157.480 248.466,158.650 249.470,159.200 250.145 C 161.375 252.811,161.931 253.185,167.253 255.551 C 169.047 256.349,170.323 257.249,171.191 258.328 C 172.588 260.068,176.250 261.605,182.692 263.157 C 187.273 264.261,190.260 265.168,193.402 266.408 C 199.103 268.658,214.917 268.043,221.104 265.330 C 221.822 265.016,223.622 264.522,225.104 264.234 C 228.053 263.661,234.164 261.882,236.437 260.934 C 237.228 260.604,238.648 259.537,239.593 258.562 C 241.433 256.664,247.223 253.508,250.279 252.739 C 251.793 252.357,252.175 252.036,253.006 250.448 C 254.406 247.769,255.127 247.006,257.733 245.448 C 259.281 244.522,260.463 243.426,261.246 242.192 C 262.641 239.991,264.377 238.314,266.660 236.957 C 267.679 236.352,268.421 235.571,268.580 234.937 C 269.534 231.136,273.068 223.008,274.449 221.439 C 276.078 219.588,276.211 219.130,278.465 207.600 C 279.687 201.348,279.797 184.607,278.659 178.000 C 277.059 168.715,275.796 164.525,274.198 163.198 C 273.416 162.550,271.916 159.649,271.199 157.400 C 269.908 153.352,267.657 149.701,264.994 147.338 C 263.545 146.052,261.748 144.158,261.001 143.128 C 260.253 142.098,258.662 140.532,257.465 139.648 C 256.268 138.764,254.144 136.713,252.744 135.090 C 250.180 132.117,247.696 130.502,241.896 128.035 C 240.849 127.590,239.136 126.424,238.088 125.444 C 236.250 123.724,235.937 123.598,229.126 121.838 C 225.245 120.835,221.649 119.837,221.135 119.619 C 216.113 117.496,206.508 116.626,199.479 117.658 M220.187 122.414 C 226.825 122.774,229.789 123.122,232.472 123.853 C 232.842 123.954,233.261 124.568,233.404 125.217 C 233.950 127.703,238.082 129.964,242.126 129.990 C 244.529 130.006,248.000 131.763,248.000 132.964 C 248.000 134.290,249.759 136.283,251.211 136.602 C 251.865 136.746,252.400 137.033,252.400 137.240 C 252.400 137.447,253.215 138.191,254.210 138.892 C 255.206 139.594,256.349 140.725,256.750 141.405 C 257.151 142.085,258.050 142.918,258.746 143.255 C 260.099 143.910,262.800 147.912,262.800 149.261 C 262.800 151.730,264.617 153.600,267.016 153.600 C 268.391 153.600,269.047 155.173,269.348 159.200 C 269.488 161.070,269.876 163.680,270.212 165.000 C 270.548 166.320,270.870 167.607,270.929 167.860 C 271.135 168.752,272.108 169.598,273.944 170.481 C 274.965 170.972,275.873 171.423,275.962 171.483 C 277.042 172.204,277.726 200.782,276.793 206.227 C 276.570 207.532,276.296 209.162,276.185 209.849 C 275.970 211.180,272.869 212.079,271.731 211.141 C 271.394 210.863,271.319 210.969,271.463 211.521 C 271.619 212.117,271.402 212.340,270.483 212.523 C 269.582 212.704,269.157 213.123,268.686 214.302 C 268.346 215.151,267.779 216.086,267.425 216.379 C 266.869 216.840,266.818 216.817,267.051 216.210 C 267.461 215.143,265.905 216.082,264.294 217.873 C 261.507 220.972,260.843 221.600,260.354 221.600 C 260.071 221.600,260.189 221.349,260.624 221.030 C 261.389 220.467,261.389 220.460,260.600 220.530 C 259.288 220.645,258.931 212.989,259.835 204.148 C 260.074 201.819,261.231 201.790,262.584 204.081 C 262.938 204.680,263.505 205.447,263.843 205.785 C 264.648 206.590,265.467 206.604,264.801 205.801 C 264.366 205.277,264.597 205.233,266.663 205.449 C 268.610 205.652,269.123 205.575,269.596 205.004 C 270.325 204.127,269.242 203.159,267.919 203.505 C 267.387 203.644,267.171 203.571,267.335 203.306 C 267.478 203.073,267.171 202.779,266.648 202.648 C 264.992 202.232,264.602 200.455,264.577 193.200 C 264.565 189.570,264.507 186.240,264.449 185.800 L 264.344 185.000 264.000 185.800 L 263.656 186.600 263.622 185.800 C 263.594 185.135,263.523 185.101,263.200 185.600 C 262.878 186.098,262.810 186.064,262.800 185.400 C 262.790 184.736,262.722 184.702,262.400 185.200 C 262.055 185.733,262.011 185.733,262.000 185.200 C 261.989 184.667,261.945 184.667,261.600 185.200 C 261.269 185.713,261.211 185.698,261.206 185.100 C 261.203 184.715,260.975 184.445,260.700 184.500 C 260.371 184.566,260.164 183.984,260.094 182.800 C 259.930 180.021,258.416 169.962,257.934 168.448 C 257.264 166.344,256.417 165.644,253.955 165.159 C 251.455 164.667,251.200 164.258,251.200 160.737 C 251.200 159.090,250.274 156.400,249.707 156.400 C 249.523 156.400,249.063 155.877,248.686 155.237 C 248.068 154.192,244.400 152.365,244.400 153.103 C 244.400 153.242,243.869 152.520,243.221 151.497 C 242.496 150.355,241.418 149.320,240.426 148.814 C 239.538 148.360,238.494 147.501,238.106 146.903 C 235.356 142.671,234.057 141.968,226.803 140.784 C 221.611 139.937,220.838 139.527,221.186 137.800 C 221.230 137.580,221.151 137.515,221.010 137.656 C 220.869 137.797,220.168 137.309,219.451 136.572 C 218.342 135.430,217.736 135.172,215.374 134.840 C 206.888 133.646,203.776 133.485,197.800 133.930 C 194.500 134.176,191.463 134.391,191.050 134.409 C 189.818 134.463,189.230 135.401,188.954 137.754 C 188.647 140.364,189.050 140.171,182.477 140.847 C 178.634 141.243,177.164 141.249,175.772 140.877 C 174.791 140.615,173.439 140.400,172.768 140.400 C 171.108 140.400,169.687 139.643,170.446 139.163 C 170.755 138.967,170.803 138.810,170.554 138.806 C 170.309 138.803,169.619 138.415,169.022 137.946 C 168.363 137.427,167.218 137.043,166.111 136.969 C 163.840 136.817,163.634 136.609,163.344 134.156 C 163.048 131.657,163.371 131.383,167.000 131.057 C 168.540 130.919,171.060 130.613,172.600 130.379 C 174.140 130.144,175.735 129.904,176.144 129.847 C 176.554 129.789,177.087 129.395,177.330 128.971 C 177.836 128.086,177.857 127.974,177.939 125.749 C 178.024 123.453,178.481 123.334,189.800 122.671 C 201.903 121.960,210.509 121.888,220.187 122.414 M160.749 139.768 C 161.019 139.935,161.012 140.419,160.730 141.230 C 159.938 143.500,155.942 144.930,155.456 143.117 C 155.116 141.844,155.140 139.795,155.500 139.425 C 155.828 139.087,160.099 139.367,160.749 139.768 M217.600 140.973 C 225.299 142.261,230.755 144.235,233.600 146.762 C 234.370 147.446,235.900 148.525,237.000 149.160 C 239.443 150.571,241.027 152.202,242.376 154.696 C 243.019 155.885,244.086 157.039,245.242 157.795 C 247.637 159.362,248.776 160.785,250.337 164.159 C 251.039 165.676,252.260 167.634,253.051 168.510 C 260.174 176.394,260.100 209.089,252.940 217.598 C 252.336 218.316,251.416 219.823,250.895 220.948 C 249.638 223.661,248.274 225.398,246.259 226.851 C 245.346 227.508,243.790 229.241,242.800 230.700 C 241.654 232.390,240.273 233.827,239.000 234.655 C 237.900 235.370,236.100 236.841,235.000 237.924 C 232.409 240.474,231.442 240.938,225.310 242.572 C 222.019 243.449,219.389 244.423,217.922 245.308 C 211.853 248.967,196.079 248.851,189.600 245.099 C 188.830 244.653,186.308 243.704,183.994 242.989 C 176.860 240.785,175.426 239.948,173.530 236.885 C 172.975 235.989,171.927 235.212,170.238 234.446 C 167.632 233.265,165.466 231.115,164.997 229.245 C 164.853 228.670,163.754 227.326,162.556 226.258 C 160.063 224.036,159.677 223.378,157.569 217.767 C 156.724 215.517,155.557 213.164,154.975 212.538 C 148.693 205.777,148.667 181.198,154.933 173.431 C 155.656 172.534,156.668 170.630,157.180 169.200 C 159.237 163.465,160.695 160.990,163.430 158.588 C 164.862 157.332,166.369 155.650,166.780 154.852 C 167.772 152.924,169.249 151.627,172.456 149.867 C 173.917 149.065,175.888 147.762,176.835 146.971 C 183.860 141.101,202.217 138.400,217.600 140.973 M171.320 145.497 C 171.536 144.917,172.493 147.122,172.290 147.731 C 172.215 147.956,170.544 148.210,168.577 148.295 C 164.049 148.491,164.119 148.397,164.027 154.367 C 164.003 155.944,163.781 156.480,163.599 155.400 C 163.562 155.180,163.322 154.740,163.066 154.423 C 162.694 153.963,162.714 153.915,163.162 154.185 C 163.574 154.433,163.634 154.379,163.388 153.980 C 162.385 152.357,163.103 146.524,164.251 146.964 C 164.576 147.089,164.739 147.025,164.614 146.823 C 164.489 146.621,164.570 146.342,164.793 146.204 C 165.017 146.066,165.205 146.278,165.212 146.676 C 165.224 147.359,165.247 147.361,165.632 146.700 C 165.856 146.315,166.221 146.000,166.443 146.000 C 166.666 146.000,166.712 146.225,166.547 146.500 C 166.348 146.831,166.479 146.812,166.933 146.443 C 167.310 146.137,167.729 145.995,167.862 146.129 C 167.996 146.262,168.469 146.117,168.914 145.805 C 169.472 145.414,169.943 145.355,170.430 145.616 C 170.919 145.878,171.192 145.841,171.320 145.497 M150.539 148.185 C 150.670 148.527,150.341 149.103,149.748 149.569 C 149.190 150.008,148.837 150.536,148.964 150.742 C 149.091 150.948,148.926 151.219,148.598 151.346 C 148.269 151.472,147.989 151.536,147.975 151.487 C 147.961 151.439,147.853 150.545,147.735 149.500 L 147.520 147.600 148.917 147.600 C 149.775 147.600,150.401 147.826,150.539 148.185 M156.394 163.233 C 156.401 164.466,156.119 164.820,155.361 164.530 C 154.670 164.264,154.652 163.673,155.295 162.310 C 155.857 161.120,156.384 161.563,156.394 163.233 M336.305 180.000 C 336.146 188.690,335.833 200.120,335.609 205.400 C 335.384 210.680,335.026 223.550,334.813 234.000 C 334.424 253.043,334.151 256.589,332.402 265.400 C 332.184 266.500,331.568 269.653,331.035 272.406 C 329.615 279.730,327.831 284.156,324.882 287.678 C 324.017 288.710,322.796 290.780,322.169 292.278 C 319.891 297.714,314.393 303.732,309.438 306.212 C 307.477 307.194,306.272 308.107,305.540 309.166 C 303.852 311.606,301.885 312.817,296.675 314.624 C 293.994 315.553,290.312 316.977,288.493 317.787 C 284.708 319.474,280.869 320.169,272.000 320.770 C 254.952 321.927,247.168 322.065,206.400 321.935 C 177.003 321.841,160.559 321.953,152.200 322.303 C 137.478 322.921,126.395 323.559,125.615 323.834 C 124.969 324.062,128.050 326.000,129.059 326.000 C 129.377 326.000,130.086 326.450,130.636 327.000 C 131.186 327.550,131.876 328.000,132.169 328.000 C 132.462 328.000,132.926 328.270,133.200 328.600 C 133.474 328.930,134.000 329.200,134.369 329.200 C 134.738 329.200,135.241 329.401,135.486 329.646 C 135.993 330.153,137.354 330.965,138.741 331.588 C 139.333 331.855,139.597 332.231,139.453 332.606 C 139.328 332.933,139.410 333.200,139.636 333.200 C 139.862 333.200,139.936 333.380,139.800 333.600 C 139.664 333.820,139.754 334.000,140.000 334.000 C 140.246 334.000,140.336 334.180,140.200 334.400 C 140.064 334.620,140.154 334.800,140.400 334.800 C 140.646 334.800,140.753 334.953,140.637 335.140 C 140.522 335.327,140.865 335.714,141.400 336.000 C 141.935 336.286,142.290 336.654,142.190 336.816 C 142.089 336.979,142.680 337.425,143.504 337.807 C 144.327 338.189,145.290 338.754,145.644 339.062 C 146.101 339.460,146.972 339.568,148.644 339.434 C 151.044 339.242,158.728 338.965,172.000 338.592 C 177.841 338.428,179.864 338.511,181.600 338.984 C 190.445 341.397,273.356 341.917,281.947 339.614 C 282.746 339.400,285.110 338.859,287.200 338.412 C 296.638 336.391,298.884 335.848,303.200 334.541 C 310.158 332.435,310.716 332.153,317.400 327.354 C 318.500 326.564,320.390 325.409,321.600 324.788 C 322.861 324.140,324.514 322.817,325.472 321.687 C 326.553 320.413,328.085 319.236,329.807 318.358 C 332.345 317.063,332.541 316.857,334.029 313.921 C 334.886 312.227,336.092 310.247,336.707 309.521 C 339.037 306.772,342.169 301.315,343.583 297.539 C 344.024 296.363,345.231 294.434,346.265 293.253 C 349.850 289.158,352.439 273.032,352.568 254.000 C 352.612 247.510,352.797 236.710,352.979 230.000 C 353.217 221.243,353.153 213.962,352.755 204.200 C 352.450 196.720,352.200 185.965,352.200 180.300 C 352.200 174.635,352.089 170.000,351.953 170.000 C 351.817 170.000,351.599 178.865,351.470 189.700 C 351.088 221.615,350.444 255.205,350.206 255.591 C 350.084 255.787,349.813 260.432,349.603 265.913 C 349.267 274.695,348.705 282.149,348.193 284.600 C 348.093 285.080,347.154 285.853,345.850 286.530 C 342.825 288.100,341.200 292.043,341.200 297.809 C 341.200 301.076,340.464 302.383,338.192 303.152 C 336.111 303.856,336.230 303.692,333.400 309.771 C 332.190 312.370,331.566 313.270,330.842 313.462 C 329.858 313.723,328.400 314.951,328.400 315.520 C 328.400 315.695,327.764 316.069,326.987 316.350 C 326.210 316.631,325.229 317.231,324.808 317.684 C 324.137 318.404,323.720 318.478,321.461 318.280 C 318.838 318.049,316.499 318.791,318.000 319.377 C 319.438 319.940,319.003 323.956,317.432 324.612 C 314.868 325.684,309.801 324.883,309.799 323.405 C 309.799 322.967,309.485 322.550,309.099 322.476 C 308.669 322.393,308.400 322.587,308.400 322.980 C 308.400 323.563,308.316 323.564,307.434 322.985 C 306.259 322.216,305.719 321.117,306.700 321.494 C 307.242 321.702,307.212 321.538,306.536 320.573 C 306.084 319.928,305.634 319.146,305.535 318.835 C 305.373 318.322,304.662 318.028,303.300 317.910 C 303.025 317.886,302.800 317.717,302.800 317.533 C 302.800 317.350,302.189 317.200,301.443 317.200 C 300.430 317.200,298.905 316.129,299.713 315.984 C 299.761 315.976,301.240 315.868,303.000 315.744 C 304.760 315.621,306.599 315.268,307.086 314.960 C 307.573 314.652,308.346 314.400,308.803 314.400 C 310.525 314.400,312.679 312.079,313.011 309.864 C 313.315 307.839,314.980 306.421,317.395 306.130 C 319.774 305.843,321.196 304.138,322.633 299.848 C 323.358 297.685,324.007 295.881,324.075 295.839 C 324.694 295.457,326.659 294.673,326.876 294.722 C 327.027 294.756,327.790 294.038,328.570 293.127 C 330.085 291.357,330.274 290.676,330.545 286.000 C 330.641 284.350,330.909 281.830,331.141 280.400 C 331.373 278.970,331.671 276.954,331.803 275.920 C 331.991 274.449,332.234 273.980,332.921 273.765 C 333.958 273.439,335.374 271.998,336.172 270.455 C 337.214 268.440,337.753 194.647,336.891 172.000 L 336.594 164.200 336.305 180.000 M269.729 206.441 C 269.428 207.311,269.376 208.376,269.583 209.400 L 269.908 211.000 269.954 209.333 C 269.979 208.417,270.141 207.607,270.313 207.533 C 270.485 207.460,270.530 206.878,270.413 206.241 L 270.200 205.082 269.729 206.441 M268.545 225.773 C 268.996 229.612,268.121 230.723,266.031 228.964 C 264.582 227.745,264.531 227.294,265.608 225.184 C 266.894 222.663,268.211 222.927,268.545 225.773 M260.572 235.555 C 260.693 235.750,260.539 236.118,260.231 236.374 C 259.608 236.892,258.969 236.297,259.400 235.600 C 259.706 235.105,260.280 235.083,260.572 235.555 M83.586 314.827 C 82.986 315.948,83.637 316.691,84.761 316.167 C 85.533 315.807,85.534 315.782,84.797 314.884 L 84.046 313.968 83.586 314.827 M302.014 332.145 C 301.053 333.103,292.265 332.418,292.650 331.414 C 292.950 330.632,296.248 329.156,298.395 328.844 C 300.405 328.551,303.127 331.034,302.014 332.145 " stroke="none" fill="#ed4d55" fill-rule="evenodd"></path><path id="path3" d="M134.800 37.238 C 117.396 37.727,112.461 38.697,108.964 42.316 C 107.846 43.474,106.944 44.010,105.800 44.199 C 96.319 45.764,94.759 46.367,91.034 49.900 C 89.585 51.275,88.195 52.400,87.946 52.400 C 85.936 52.400,79.995 56.480,78.920 58.600 C 78.179 60.058,76.010 62.400,75.400 62.400 C 74.461 62.400,71.373 64.717,70.826 65.831 C 69.553 68.427,67.738 70.793,66.676 71.242 C 64.508 72.158,61.613 77.431,60.769 82.000 C 60.332 84.360,60.108 84.761,58.333 86.340 C 54.981 89.326,53.851 92.629,52.787 102.555 C 52.067 109.272,51.909 109.995,50.628 112.480 C 46.959 119.593,46.735 123.556,46.781 180.673 C 46.841 255.870,47.144 262.531,50.868 270.712 C 51.869 272.910,52.264 274.704,53.038 280.561 C 54.464 291.343,56.130 296.499,58.804 298.403 C 59.661 299.013,60.181 299.930,60.754 301.841 C 61.786 305.280,64.507 309.718,66.699 311.537 C 67.805 312.455,69.159 314.254,70.331 316.363 C 72.187 319.704,72.954 320.466,76.779 322.780 C 77.671 323.320,78.838 324.423,79.373 325.231 C 80.014 326.199,81.825 327.623,84.673 329.398 C 87.053 330.880,89.540 332.584,90.200 333.184 C 92.600 335.364,94.665 336.264,103.073 338.793 C 105.970 339.664,107.616 340.411,108.779 341.382 C 111.256 343.452,114.269 344.382,121.200 345.218 C 124.610 345.630,128.930 346.160,130.800 346.396 C 132.670 346.632,138.790 347.179,144.400 347.611 C 150.010 348.042,157.660 348.654,161.400 348.971 C 176.455 350.245,184.232 350.516,212.600 350.753 C 259.478 351.144,258.541 351.174,267.594 348.982 C 270.393 348.305,273.796 347.871,278.529 347.590 C 296.953 346.493,303.368 345.171,307.164 341.685 C 308.509 340.450,309.555 339.910,311.564 339.411 C 319.586 337.421,321.598 336.339,323.232 333.138 C 323.683 332.254,324.311 331.598,324.708 331.596 C 327.045 331.583,330.002 329.356,332.135 326.000 C 332.625 325.230,333.920 324.115,335.013 323.522 C 337.563 322.139,338.598 320.912,339.425 318.288 C 340.026 316.382,340.268 316.099,341.860 315.440 C 344.042 314.538,345.328 312.895,346.190 309.911 C 347.084 306.812,347.891 305.289,348.788 305.004 C 351.603 304.110,353.551 299.740,354.952 291.178 C 355.693 286.645,356.169 284.786,356.781 284.026 C 362.584 276.823,362.483 278.086,362.567 212.000 C 362.686 118.446,362.203 109.056,356.950 102.814 C 356.094 101.797,355.795 100.738,355.165 96.496 C 353.799 87.297,353.288 85.878,350.076 82.353 C 347.946 80.014,347.256 78.849,345.976 75.426 C 344.904 72.562,343.472 70.875,341.294 69.912 C 340.016 69.347,339.393 68.758,338.923 67.673 C 337.047 63.347,336.258 62.449,333.518 61.527 C 331.689 60.912,331.274 60.520,330.188 58.377 C 329.115 56.260,327.540 54.782,325.553 54.028 C 322.794 52.981,321.543 52.168,320.828 50.956 C 319.172 48.152,315.845 46.560,308.789 45.193 C 304.759 44.413,303.859 44.081,301.400 42.471 C 295.610 38.681,290.902 37.892,270.000 37.211 C 255.681 36.744,151.649 36.765,134.800 37.238 M275.800 41.154 C 283.476 41.690,286.241 42.231,291.406 44.209 C 293.389 44.968,297.514 46.231,300.573 47.014 C 307.859 48.882,310.182 49.723,312.600 51.369 C 313.700 52.118,315.500 53.221,316.600 53.820 C 322.384 56.972,324.450 58.392,327.000 60.970 C 328.540 62.526,330.691 64.430,331.779 65.200 C 332.934 66.016,334.549 67.763,335.655 69.390 C 336.698 70.924,338.440 73.001,339.526 74.005 C 341.559 75.883,342.719 77.848,345.023 83.311 C 345.755 85.046,347.078 87.405,347.964 88.553 C 350.224 91.483,350.564 92.486,352.195 101.026 C 352.990 105.192,354.075 110.220,354.605 112.200 C 357.865 124.377,358.487 140.678,357.995 201.000 C 357.604 248.894,357.286 258.202,355.814 264.943 C 354.802 269.573,351.977 284.123,351.143 289.000 C 350.612 292.105,349.509 294.613,347.648 296.946 C 346.970 297.796,345.937 299.506,345.352 300.746 C 341.330 309.281,341.199 309.504,339.385 310.991 C 338.379 311.815,337.033 313.414,336.393 314.545 C 334.941 317.110,333.390 318.818,331.330 320.118 C 330.451 320.673,328.676 322.329,327.386 323.798 C 325.688 325.733,324.313 326.837,322.402 327.799 C 320.950 328.530,318.820 329.873,317.668 330.784 C 315.121 332.797,313.757 333.396,305.696 336.040 C 302.233 337.176,297.818 338.814,295.883 339.681 C 293.490 340.754,290.995 341.496,288.073 342.005 C 267.441 345.596,150.310 343.323,145.821 339.245 C 145.369 338.835,144.327 338.187,143.504 337.806 C 142.680 337.424,142.089 336.979,142.190 336.816 C 142.290 336.654,141.935 336.286,141.400 336.000 C 140.865 335.714,140.522 335.327,140.637 335.140 C 140.753 334.953,140.646 334.800,140.400 334.800 C 140.154 334.800,140.064 334.620,140.200 334.400 C 140.336 334.180,140.246 334.000,140.000 334.000 C 139.754 334.000,139.664 333.820,139.800 333.600 C 139.936 333.380,139.862 333.200,139.636 333.200 C 139.410 333.200,139.328 332.933,139.453 332.606 C 139.597 332.231,139.333 331.855,138.741 331.588 C 137.354 330.965,135.993 330.153,135.486 329.646 C 135.241 329.401,134.738 329.200,134.369 329.200 C 134.000 329.200,133.474 328.930,133.200 328.600 C 132.926 328.270,132.462 328.000,132.169 328.000 C 131.876 328.000,131.186 327.550,130.636 327.000 C 130.086 326.450,129.377 326.000,129.059 326.000 C 128.050 326.000,124.969 324.062,125.615 323.834 C 126.547 323.506,138.722 322.857,152.600 322.395 C 159.640 322.160,170.890 321.698,177.600 321.368 C 184.310 321.038,203.495 320.600,220.233 320.394 C 265.803 319.835,279.501 318.907,285.213 315.994 C 286.016 315.584,289.717 314.318,293.437 313.181 C 301.457 310.728,301.063 310.918,304.218 307.984 C 305.592 306.705,307.500 305.267,308.458 304.787 C 311.733 303.149,318.623 295.540,320.581 291.400 C 321.518 289.420,323.019 286.664,323.917 285.276 C 327.781 279.306,328.741 273.616,330.072 248.800 C 330.838 234.533,330.688 154.835,329.866 139.000 C 328.407 110.882,327.885 107.858,323.204 100.406 C 322.307 98.980,320.995 96.280,320.287 94.406 C 319.325 91.859,318.596 90.626,317.400 89.517 C 314.259 86.607,312.578 84.891,311.081 83.069 C 310.050 81.814,308.558 80.698,306.432 79.592 C 304.710 78.697,302.604 77.367,301.751 76.638 C 299.839 75.004,296.904 73.503,294.000 72.675 C 290.043 71.547,275.108 68.878,270.200 68.422 C 267.560 68.177,262.430 67.695,258.800 67.352 C 242.559 65.815,155.916 66.287,143.461 67.979 C 140.347 68.403,136.630 68.861,135.200 68.997 C 124.756 69.996,113.493 73.102,108.759 76.287 C 107.132 77.383,104.397 79.047,102.683 79.985 C 100.572 81.140,99.023 82.348,97.883 83.726 C 96.957 84.845,94.811 87.216,93.113 88.995 C 89.891 92.370,88.942 94.116,86.809 100.600 C 86.302 102.140,85.124 105.110,84.190 107.200 C 80.779 114.839,80.478 116.880,79.587 138.400 C 78.528 163.970,77.963 260.679,78.820 269.600 C 80.108 283.003,80.410 284.345,82.718 286.897 C 84.469 288.833,84.877 289.737,85.995 294.152 C 86.613 296.592,87.133 297.683,88.297 298.980 C 89.124 299.902,90.110 301.184,90.489 301.828 C 90.867 302.473,91.353 303.270,91.568 303.600 C 91.783 303.930,92.193 304.733,92.479 305.385 C 93.070 306.729,94.294 307.459,96.552 307.813 C 98.713 308.151,97.884 308.809,94.999 309.046 C 93.732 309.150,92.584 309.258,92.448 309.287 C 91.867 309.410,90.000 308.226,90.000 307.736 C 90.000 307.441,89.826 307.200,89.613 307.200 C 89.399 307.200,89.319 306.956,89.433 306.657 C 89.725 305.898,87.858 305.213,85.184 305.097 C 82.931 304.998,80.481 306.220,80.422 307.471 C 80.384 308.274,78.350 309.600,77.155 309.600 C 75.716 309.600,74.954 308.450,74.652 305.823 C 74.351 303.218,73.531 302.473,70.409 301.970 C 67.494 301.501,66.953 300.998,66.575 298.400 C 65.549 291.359,64.298 288.111,61.489 285.192 C 59.353 282.973,58.580 279.626,57.010 265.800 C 54.156 240.661,53.206 138.923,55.608 115.600 C 56.978 102.299,57.631 99.719,61.024 94.200 C 61.565 93.320,62.554 90.800,63.222 88.600 C 64.848 83.246,65.692 81.502,67.735 79.276 C 68.682 78.244,70.291 76.140,71.312 74.600 C 72.332 73.060,75.289 69.639,77.883 66.997 C 85.806 58.928,87.908 57.219,92.600 55.030 C 94.140 54.311,96.300 52.972,97.400 52.054 C 99.830 50.026,102.110 49.140,109.400 47.392 C 112.480 46.653,116.980 45.249,119.400 44.272 C 125.562 41.784,129.905 41.246,147.200 40.830 C 168.108 40.328,267.550 40.579,275.800 41.154 M274.600 73.971 C 286.729 74.552,292.284 75.416,293.018 76.835 C 293.803 78.352,296.434 80.512,298.262 81.140 C 299.108 81.430,300.526 81.995,301.413 82.395 C 302.300 82.795,303.830 83.337,304.813 83.600 C 307.101 84.212,307.542 84.596,308.479 86.794 C 309.352 88.840,311.200 90.923,312.753 91.610 C 314.616 92.435,315.947 94.520,316.993 98.255 C 318.828 104.805,319.208 105.902,319.982 106.887 C 325.390 113.761,325.260 112.108,325.476 176.800 C 325.714 247.778,325.227 270.030,323.396 271.861 C 321.428 273.829,318.545 280.920,316.301 289.312 C 315.902 290.804,315.142 291.589,312.410 293.332 C 310.734 294.401,309.348 296.367,308.778 298.481 C 308.547 299.339,308.143 300.110,307.879 300.193 C 307.616 300.277,306.410 300.621,305.200 300.957 C 302.721 301.647,297.392 304.980,295.862 306.799 C 294.506 308.411,293.555 308.714,288.291 309.210 C 283.127 309.696,278.442 310.327,278.009 310.594 C 277.422 310.957,259.811 312.241,241.800 313.235 C 237.400 313.477,224.350 313.745,212.800 313.829 C 201.250 313.914,186.400 314.024,179.800 314.075 C 163.970 314.196,143.869 313.439,136.000 312.425 C 132.590 311.986,128.381 311.442,126.647 311.216 C 116.766 309.931,113.815 309.109,111.600 307.024 C 109.848 305.376,104.544 301.905,102.749 301.232 C 102.007 300.954,101.040 300.585,100.600 300.411 C 100.114 300.219,99.444 299.161,98.894 297.717 C 98.396 296.409,97.226 294.421,96.294 293.300 C 92.568 288.816,91.961 287.974,91.256 286.320 C 90.852 285.374,90.297 283.070,90.021 281.200 C 89.344 276.608,88.586 273.577,87.221 270.000 C 83.199 259.462,82.811 249.763,83.529 177.800 C 84.021 128.585,84.121 126.503,86.191 122.417 C 87.644 119.550,89.264 113.375,90.858 104.628 L 91.800 99.456 93.652 98.125 C 94.942 97.198,95.943 95.976,96.951 94.097 C 98.643 90.946,99.650 89.730,101.679 88.390 C 102.493 87.852,103.646 86.642,104.241 85.701 C 105.558 83.618,106.972 82.739,110.489 81.820 C 112.582 81.273,113.958 80.536,116.689 78.499 C 121.046 75.250,122.019 75.012,133.600 74.360 C 153.281 73.253,253.811 72.975,274.600 73.971 M282.200 88.461 C 281.320 88.914,279.880 89.965,279.000 90.796 C 278.028 91.713,276.536 92.580,275.200 93.003 C 271.375 94.216,270.139 95.539,268.383 100.300 C 268.119 101.015,267.759 101.600,267.582 101.600 C 267.406 101.600,266.679 102.183,265.966 102.896 C 261.746 107.116,262.309 117.180,266.940 120.314 C 268.257 121.205,268.806 122.182,270.196 126.107 C 272.794 133.442,296.660 134.308,303.306 127.309 C 307.326 123.075,309.030 111.972,307.019 103.109 C 305.422 96.065,304.502 94.813,299.756 93.221 C 297.998 92.631,296.408 91.755,295.366 90.801 C 293.480 89.075,292.199 88.599,287.871 88.019 C 283.932 87.491,284.105 87.478,282.200 88.461 M289.800 94.625 C 293.115 94.931,298.363 97.280,300.293 99.321 C 303.832 103.065,305.369 114.313,302.913 118.497 C 301.349 121.163,296.328 126.170,294.172 127.214 C 290.161 129.155,278.979 127.782,275.591 124.931 C 269.233 119.581,268.455 104.526,274.231 98.623 C 275.962 96.853,283.220 93.982,285.400 94.204 C 286.280 94.293,288.260 94.483,289.800 94.625 M194.515 109.638 C 186.793 110.327,181.012 112.065,176.791 114.969 C 175.777 115.666,173.879 116.474,172.574 116.763 C 166.108 118.197,162.519 119.986,160.326 122.868 C 159.629 123.784,158.153 124.813,156.126 125.800 C 152.364 127.630,151.406 128.440,150.198 130.813 C 149.430 132.320,148.830 132.849,146.637 133.951 C 144.002 135.275,142.768 136.515,142.208 138.400 C 141.642 140.306,139.882 142.657,138.444 143.427 C 136.516 144.459,133.446 149.608,132.632 153.174 C 132.176 155.177,131.780 155.970,130.927 156.591 C 126.718 159.656,126.054 162.149,124.385 181.138 C 124.147 183.854,123.782 186.520,123.576 187.064 C 123.083 188.360,123.092 195.428,123.589 197.161 C 123.803 197.906,124.350 202.765,124.804 207.958 C 125.981 221.390,126.741 224.247,129.948 227.273 C 131.367 228.612,131.999 229.588,132.392 231.040 C 133.720 235.961,136.243 240.078,138.714 241.355 C 140.092 242.068,141.362 243.697,141.730 245.224 C 142.213 247.225,143.780 248.986,146.167 250.209 C 148.216 251.259,148.692 251.735,149.777 253.809 C 150.980 256.110,151.167 256.269,154.752 258.035 C 157.314 259.297,158.717 260.250,159.247 261.087 C 160.613 263.244,165.528 266.102,169.687 267.158 C 172.000 267.746,172.962 268.237,174.360 269.542 C 178.316 273.240,184.291 274.356,201.800 274.668 C 223.536 275.055,231.769 273.838,236.648 269.517 C 237.719 268.569,239.564 267.668,242.600 266.612 C 248.281 264.635,248.980 264.211,250.617 261.746 C 251.741 260.054,252.247 259.644,253.491 259.416 C 255.700 259.012,258.283 257.367,259.361 255.678 C 260.495 253.902,261.558 252.896,264.170 251.131 C 265.617 250.153,266.466 249.163,267.370 247.402 C 268.300 245.589,269.088 244.688,270.600 243.706 C 272.540 242.447,274.381 239.666,274.395 237.971 C 274.411 236.026,275.725 233.581,277.200 232.752 C 280.039 231.156,281.659 227.808,283.155 220.445 C 283.915 216.707,284.158 216.119,285.570 214.587 C 287.993 211.957,288.984 207.047,289.418 195.507 C 289.862 183.714,288.606 176.508,285.174 171.160 C 284.197 169.637,283.785 168.295,283.195 164.718 C 282.078 157.934,279.999 153.390,277.277 151.782 C 275.943 150.994,275.228 149.690,274.216 146.200 C 273.420 143.456,271.267 141.054,269.195 140.599 C 268.508 140.448,267.877 140.117,267.793 139.862 C 267.708 139.608,267.443 138.634,267.204 137.697 C 266.605 135.359,264.623 133.476,261.988 132.743 C 259.967 132.181,259.846 132.070,259.335 130.318 C 258.681 128.076,256.690 126.207,254.305 125.598 C 251.377 124.850,250.381 124.323,249.810 123.219 C 248.233 120.170,244.534 118.206,237.853 116.871 C 234.692 116.239,233.765 115.876,232.525 114.788 C 227.231 110.139,212.018 108.078,194.515 109.638 M215.521 115.252 C 217.425 115.721,220.099 116.525,221.463 117.038 C 222.827 117.552,226.701 118.631,230.071 119.437 C 236.493 120.973,238.748 121.880,241.400 123.996 C 242.280 124.698,245.276 126.430,248.058 127.844 C 252.446 130.076,253.364 130.719,254.995 132.708 C 256.028 133.969,257.622 135.507,258.537 136.126 C 261.019 137.805,261.901 138.721,264.006 141.800 C 265.058 143.340,266.690 145.320,267.633 146.200 C 268.894 147.377,270.012 149.183,271.866 153.036 C 273.252 155.916,274.947 158.976,275.633 159.836 C 280.119 165.463,283.273 185.395,281.989 200.000 C 280.852 212.917,278.545 222.038,275.534 225.517 C 274.201 227.058,272.509 230.338,271.159 234.000 C 270.394 236.075,269.666 237.125,267.554 239.200 C 266.099 240.630,264.340 242.648,263.645 243.685 C 262.951 244.721,261.635 246.161,260.722 246.885 C 258.629 248.542,256.555 250.611,254.955 252.638 C 253.717 254.207,252.631 254.885,249.200 256.234 C 248.210 256.623,245.960 257.965,244.200 259.217 C 239.757 262.377,237.714 263.325,232.296 264.741 C 229.709 265.418,226.469 266.442,225.096 267.018 C 220.012 269.151,219.506 269.227,207.667 269.622 C 194.966 270.046,192.585 269.758,187.389 267.171 C 186.063 266.511,183.363 265.550,181.389 265.036 C 172.231 262.651,170.208 261.783,167.800 259.207 C 167.140 258.501,165.430 257.330,164.000 256.605 C 158.514 253.823,155.902 252.075,154.265 250.090 C 153.349 248.981,151.453 247.024,150.051 245.742 C 148.649 244.460,146.759 242.344,145.851 241.038 C 144.943 239.733,143.534 237.700,142.720 236.521 C 141.905 235.342,140.689 233.828,140.017 233.155 C 138.215 231.353,136.873 228.846,135.975 225.605 C 135.188 222.765,133.752 219.546,132.405 217.600 C 129.804 213.842,128.648 205.832,128.652 191.600 C 128.656 177.614,129.420 173.016,133.013 165.377 C 133.950 163.384,135.187 160.264,135.763 158.443 C 136.806 155.138,138.304 152.513,140.008 151.000 C 140.503 150.560,141.893 148.680,143.096 146.821 C 146.511 141.546,147.503 140.402,152.331 136.165 C 159.945 129.482,161.164 128.546,164.140 127.094 C 165.721 126.323,167.807 125.030,168.774 124.221 C 171.606 121.856,176.153 120.166,184.400 118.414 C 186.710 117.923,190.246 116.997,192.257 116.356 C 198.661 114.314,209.601 113.795,215.521 115.252 M193.400 142.820 C 188.127 143.933,183.651 145.486,181.559 146.930 C 180.546 147.628,178.296 149.137,176.559 150.281 C 174.821 151.426,172.735 152.812,171.922 153.362 C 171.109 153.911,169.513 155.546,168.375 156.993 C 167.238 158.441,165.530 160.160,164.580 160.814 C 162.286 162.392,161.653 163.369,159.401 168.800 C 156.940 174.738,156.251 176.233,155.029 178.288 C 151.702 183.885,152.061 203.706,155.583 208.800 C 155.963 209.350,157.329 212.465,158.618 215.722 C 160.897 221.481,161.044 221.729,163.981 224.739 C 165.641 226.441,167.476 228.546,168.058 229.417 C 168.739 230.436,169.934 231.426,171.412 232.195 C 172.891 232.965,174.557 234.345,176.095 236.076 C 179.022 239.369,180.853 240.141,194.600 243.872 C 201.523 245.751,209.439 246.031,212.800 244.514 C 215.197 243.433,217.611 242.691,223.591 241.198 C 229.126 239.817,230.180 239.291,232.800 236.601 C 233.790 235.584,235.539 234.214,236.687 233.555 C 237.834 232.896,239.544 231.442,240.487 230.325 C 241.429 229.208,243.415 227.018,244.900 225.460 C 246.605 223.672,248.216 221.441,249.268 219.413 C 250.185 217.646,251.519 215.347,252.233 214.305 C 258.464 205.209,257.996 177.812,251.483 170.366 C 250.485 169.225,248.996 166.921,248.174 165.246 C 247.104 163.065,245.873 161.394,243.840 159.364 C 242.278 157.805,240.225 155.605,239.277 154.476 C 238.264 153.268,236.605 151.917,235.248 151.194 C 233.980 150.517,232.055 149.225,230.971 148.322 C 224.455 142.892,205.918 140.177,193.400 142.820 M216.982 147.160 C 220.199 147.419,221.044 147.620,221.382 148.208 C 222.264 149.744,224.473 151.943,225.709 152.516 C 229.869 154.443,231.664 155.186,233.073 155.566 C 234.945 156.070,236.127 157.254,236.773 159.274 C 237.050 160.140,237.908 161.295,238.853 162.074 C 243.281 165.725,244.415 167.578,246.395 174.400 C 247.092 176.800,249.749 182.670,251.646 186.000 C 253.529 189.306,252.179 201.528,249.590 204.600 C 248.229 206.216,247.145 208.726,245.478 214.129 L 243.771 219.658 241.798 220.729 C 239.621 221.911,238.238 223.671,237.528 226.164 C 236.945 228.212,236.126 229.200,235.011 229.200 C 232.161 229.200,228.828 231.091,225.653 234.511 C 222.463 237.945,204.625 239.410,192.084 237.268 C 186.584 236.328,186.705 236.375,185.073 234.517 C 184.423 233.776,183.060 232.688,182.045 232.101 C 181.030 231.513,179.532 230.554,178.716 229.971 C 177.900 229.388,176.679 228.681,176.002 228.401 C 174.505 227.781,172.186 225.522,171.319 223.838 C 170.596 222.436,168.201 219.493,165.736 216.980 C 161.304 212.460,158.972 193.956,161.353 182.200 C 161.710 180.440,162.204 177.560,162.450 175.800 C 163.076 171.341,163.540 170.298,165.595 168.733 C 166.583 167.981,167.787 166.744,168.272 165.983 C 170.030 163.224,171.835 161.299,173.511 160.397 C 174.538 159.845,175.704 158.735,176.424 157.622 C 177.656 155.722,178.989 154.819,181.800 153.986 C 184.155 153.287,186.555 151.804,187.160 150.675 C 189.019 147.201,200.576 145.838,216.982 147.160 M84.761 316.167 C 83.637 316.691,82.986 315.948,83.586 314.827 L 84.046 313.968 84.797 314.884 C 85.534 315.782,85.533 315.807,84.761 316.167 " stroke="none" fill="#fbb8bb" fill-rule="evenodd"></path><path id="path4" d="M0.000 200.000 L 0.000 400.000 200.000 400.000 L 400.000 400.000 400.000 200.000 L 400.000 0.000 200.000 0.000 L 0.000 0.000 0.000 200.000 M270.000 37.211 C 290.902 37.892,295.610 38.681,301.400 42.471 C 303.859 44.081,304.759 44.413,308.789 45.193 C 315.845 46.560,319.172 48.152,320.828 50.956 C 321.543 52.168,322.794 52.981,325.553 54.028 C 327.540 54.782,329.115 56.260,330.188 58.377 C 331.274 60.520,331.689 60.912,333.518 61.527 C 336.258 62.449,337.047 63.347,338.923 67.673 C 339.393 68.758,340.016 69.347,341.294 69.912 C 343.472 70.875,344.904 72.562,345.976 75.426 C 347.256 78.849,347.946 80.014,350.076 82.353 C 353.288 85.878,353.799 87.297,355.165 96.496 C 355.795 100.738,356.094 101.797,356.950 102.814 C 362.203 109.056,362.686 118.446,362.567 212.000 C 362.483 278.086,362.584 276.823,356.781 284.026 C 356.169 284.786,355.693 286.645,354.952 291.178 C 353.551 299.740,351.603 304.110,348.788 305.004 C 347.891 305.289,347.084 306.812,346.190 309.911 C 345.328 312.895,344.042 314.538,341.860 315.440 C 340.268 316.099,340.026 316.382,339.425 318.288 C 338.598 320.912,337.563 322.139,335.013 323.522 C 333.920 324.115,332.625 325.230,332.135 326.000 C 330.002 329.356,327.045 331.583,324.708 331.596 C 324.311 331.598,323.683 332.254,323.232 333.138 C 321.598 336.339,319.586 337.421,311.564 339.411 C 309.555 339.910,308.509 340.450,307.164 341.685 C 303.368 345.171,296.953 346.493,278.529 347.590 C 273.796 347.871,270.393 348.305,267.594 348.982 C 258.541 351.174,259.478 351.144,212.600 350.753 C 184.232 350.516,176.455 350.245,161.400 348.971 C 157.660 348.654,150.010 348.042,144.400 347.611 C 138.790 347.179,132.670 346.632,130.800 346.396 C 128.930 346.160,124.610 345.630,121.200 345.218 C 114.269 344.382,111.256 343.452,108.779 341.382 C 107.616 340.411,105.970 339.664,103.073 338.793 C 94.665 336.264,92.600 335.364,90.200 333.184 C 89.540 332.584,87.053 330.880,84.673 329.398 C 81.825 327.623,80.014 326.199,79.373 325.231 C 78.838 324.423,77.671 323.320,76.779 322.780 C 72.954 320.466,72.187 319.704,70.331 316.363 C 69.159 314.254,67.805 312.455,66.699 311.537 C 64.507 309.718,61.786 305.280,60.754 301.841 C 60.181 299.930,59.661 299.013,58.804 298.403 C 56.130 296.499,54.464 291.343,53.038 280.561 C 52.264 274.704,51.869 272.910,50.868 270.712 C 47.144 262.531,46.841 255.870,46.781 180.673 C 46.735 123.556,46.959 119.593,50.628 112.480 C 51.909 109.995,52.067 109.272,52.787 102.555 C 53.851 92.629,54.981 89.326,58.333 86.340 C 60.108 84.761,60.332 84.360,60.769 82.000 C 61.613 77.431,64.508 72.158,66.676 71.242 C 67.738 70.793,69.553 68.427,70.826 65.831 C 71.373 64.717,74.461 62.400,75.400 62.400 C 76.010 62.400,78.179 60.058,78.920 58.600 C 79.995 56.480,85.936 52.400,87.946 52.400 C 88.195 52.400,89.585 51.275,91.034 49.900 C 94.759 46.367,96.319 45.764,105.800 44.199 C 106.944 44.010,107.846 43.474,108.964 42.316 C 112.461 38.697,117.396 37.727,134.800 37.238 C 151.649 36.765,255.681 36.744,270.000 37.211 M155.400 73.583 C 125.322 74.251,121.783 74.701,116.689 78.499 C 113.958 80.536,112.582 81.273,110.489 81.820 C 106.972 82.739,105.558 83.618,104.241 85.701 C 103.646 86.642,102.493 87.852,101.679 88.390 C 99.650 89.730,98.643 90.946,96.951 94.097 C 95.943 95.976,94.942 97.198,93.652 98.125 L 91.800 99.456 90.858 104.628 C 89.264 113.375,87.644 119.550,86.191 122.417 C 84.121 126.503,84.021 128.585,83.529 177.800 C 82.811 249.763,83.199 259.462,87.221 270.000 C 88.586 273.577,89.344 276.608,90.021 281.200 C 90.297 283.070,90.852 285.374,91.256 286.320 C 91.961 287.974,92.568 288.816,96.294 293.300 C 97.226 294.421,98.396 296.409,98.894 297.717 C 99.444 299.161,100.114 300.219,100.600 300.411 C 101.040 300.585,102.007 300.954,102.749 301.232 C 104.544 301.905,109.848 305.376,111.600 307.024 C 113.815 309.109,116.766 309.931,126.647 311.216 C 128.381 311.442,132.590 311.986,136.000 312.425 C 143.869 313.439,163.970 314.196,179.800 314.075 C 186.400 314.024,201.250 313.914,212.800 313.829 C 224.350 313.745,237.400 313.477,241.800 313.235 C 259.811 312.241,277.422 310.957,278.009 310.594 C 278.442 310.327,283.127 309.696,288.291 309.210 C 293.555 308.714,294.506 308.411,295.862 306.799 C 297.392 304.980,302.721 301.647,305.200 300.957 C 306.410 300.621,307.616 300.277,307.879 300.193 C 308.143 300.110,308.547 299.339,308.778 298.481 C 309.348 296.367,310.734 294.401,312.410 293.332 C 315.142 291.589,315.902 290.804,316.301 289.312 C 318.545 280.920,321.428 273.829,323.396 271.861 C 325.227 270.030,325.714 247.778,325.476 176.800 C 325.260 112.108,325.390 113.761,319.982 106.887 C 319.208 105.902,318.828 104.805,316.993 98.255 C 315.947 94.520,314.616 92.435,312.753 91.610 C 311.200 90.923,309.352 88.840,308.479 86.794 C 307.542 84.596,307.101 84.212,304.813 83.600 C 303.830 83.337,302.300 82.795,301.413 82.395 C 300.526 81.995,299.108 81.430,298.262 81.140 C 296.434 80.512,293.803 78.352,293.018 76.835 C 291.628 74.147,279.655 73.607,217.400 73.429 C 190.560 73.353,162.660 73.422,155.400 73.583 M287.871 88.019 C 292.199 88.599,293.480 89.075,295.366 90.801 C 296.408 91.755,297.998 92.631,299.756 93.221 C 304.502 94.813,305.422 96.065,307.019 103.109 C 309.553 114.279,306.641 126.190,300.619 129.286 C 294.549 132.407,284.731 132.909,275.716 130.561 C 272.648 129.762,271.028 128.454,270.196 126.107 C 268.806 122.182,268.257 121.205,266.940 120.314 C 262.309 117.180,261.746 107.116,265.966 102.896 C 266.679 102.183,267.406 101.600,267.582 101.600 C 267.759 101.600,268.119 101.015,268.383 100.300 C 270.139 95.539,271.375 94.216,275.200 93.003 C 276.536 92.580,278.028 91.713,279.000 90.796 C 282.162 87.812,283.409 87.421,287.871 88.019 M216.200 109.620 C 223.967 110.287,229.333 111.985,232.525 114.788 C 233.765 115.876,234.692 116.239,237.853 116.871 C 244.534 118.206,248.233 120.170,249.810 123.219 C 250.381 124.323,251.377 124.850,254.305 125.598 C 256.690 126.207,258.681 128.076,259.335 130.318 C 259.846 132.070,259.967 132.181,261.988 132.743 C 264.623 133.476,266.605 135.359,267.204 137.697 C 267.443 138.634,267.708 139.608,267.793 139.862 C 267.877 140.117,268.508 140.448,269.195 140.599 C 271.267 141.054,273.420 143.456,274.216 146.200 C 275.228 149.690,275.943 150.994,277.277 151.782 C 279.999 153.390,282.078 157.934,283.195 164.718 C 283.785 168.295,284.197 169.637,285.174 171.160 C 288.606 176.508,289.862 183.714,289.418 195.507 C 288.984 207.047,287.993 211.957,285.570 214.587 C 284.158 216.119,283.915 216.707,283.155 220.445 C 281.659 227.808,280.039 231.156,277.200 232.752 C 275.725 233.581,274.411 236.026,274.395 237.971 C 274.381 239.666,272.540 242.447,270.600 243.706 C 269.088 244.688,268.300 245.589,267.370 247.402 C 266.466 249.163,265.617 250.153,264.170 251.131 C 261.558 252.896,260.495 253.902,259.361 255.678 C 258.283 257.367,255.700 259.012,253.491 259.416 C 252.247 259.644,251.741 260.054,250.617 261.746 C 248.980 264.211,248.281 264.635,242.600 266.612 C 239.564 267.668,237.719 268.569,236.648 269.517 C 231.769 273.838,223.536 275.055,201.800 274.668 C 184.291 274.356,178.316 273.240,174.360 269.542 C 172.962 268.237,172.000 267.746,169.687 267.158 C 165.528 266.102,160.613 263.244,159.247 261.087 C 158.717 260.250,157.314 259.297,154.752 258.035 C 151.167 256.269,150.980 256.110,149.777 253.809 C 148.692 251.735,148.216 251.259,146.167 250.209 C 143.780 248.986,142.213 247.225,141.730 245.224 C 141.362 243.697,140.092 242.068,138.714 241.355 C 136.243 240.078,133.720 235.961,132.392 231.040 C 131.999 229.588,131.367 228.612,129.948 227.273 C 126.741 224.247,125.981 221.390,124.804 207.958 C 124.350 202.765,123.803 197.906,123.589 197.161 C 123.092 195.428,123.083 188.360,123.576 187.064 C 123.782 186.520,124.147 183.854,124.385 181.138 C 126.054 162.149,126.718 159.656,130.927 156.591 C 131.780 155.970,132.176 155.177,132.632 153.174 C 133.446 149.608,136.516 144.459,138.444 143.427 C 139.882 142.657,141.642 140.306,142.208 138.400 C 142.768 136.515,144.002 135.275,146.637 133.951 C 148.830 132.849,149.430 132.320,150.198 130.813 C 151.406 128.440,152.364 127.630,156.126 125.800 C 158.153 124.813,159.629 123.784,160.326 122.868 C 162.519 119.986,166.108 118.197,172.574 116.763 C 173.879 116.474,175.777 115.666,176.791 114.969 C 183.823 110.132,198.673 108.116,216.200 109.620 M192.707 147.430 C 189.838 148.001,188.022 149.063,187.160 150.675 C 186.555 151.804,184.155 153.287,181.800 153.986 C 178.989 154.819,177.656 155.722,176.424 157.622 C 175.704 158.735,174.538 159.845,173.511 160.397 C 171.835 161.299,170.030 163.224,168.272 165.983 C 167.787 166.744,166.583 167.981,165.595 168.733 C 163.540 170.298,163.076 171.341,162.450 175.800 C 162.204 177.560,161.710 180.440,161.353 182.200 C 158.972 193.956,161.304 212.460,165.736 216.980 C 168.201 219.493,170.596 222.436,171.319 223.838 C 172.186 225.522,174.505 227.781,176.002 228.401 C 176.679 228.681,177.900 229.388,178.716 229.971 C 179.532 230.554,181.030 231.513,182.045 232.101 C 183.060 232.688,184.423 233.776,185.073 234.517 C 186.705 236.375,186.584 236.328,192.084 237.268 C 204.625 239.410,222.463 237.945,225.653 234.511 C 228.828 231.091,232.161 229.200,235.011 229.200 C 236.126 229.200,236.945 228.212,237.528 226.164 C 238.238 223.671,239.621 221.911,241.798 220.729 L 243.771 219.658 245.478 214.129 C 247.145 208.726,248.229 206.216,249.590 204.600 C 252.179 201.528,253.529 189.306,251.646 186.000 C 249.749 182.670,247.092 176.800,246.395 174.400 C 244.415 167.578,243.281 165.725,238.853 162.074 C 237.908 161.295,237.050 160.140,236.773 159.274 C 236.127 157.254,234.945 156.070,233.073 155.566 C 231.664 155.186,229.869 154.443,225.709 152.516 C 224.473 151.943,222.264 149.744,221.382 148.208 C 220.588 146.826,198.719 146.232,192.707 147.430 " stroke="none" fill="#fffeff" fill-rule="evenodd"></path></g></svg>